<svg width="662" height="141" xmlns="http://www.w3.org/2000/svg" xmlns:xlink="http://www.w3.org/1999/xlink" overflow="hidden"><defs><clipPath id="clip0"><rect x="229" y="185" width="111" height="140"/></clipPath><clipPath id="clip1"><rect x="229" y="185" width="111" height="140"/></clipPath><clipPath id="clip2"><rect x="229" y="185" width="111" height="140"/></clipPath></defs><g transform="translate(-228 -184)"><g clip-path="url(#clip0)"><g clip-path="url(#clip1)"><g clip-path="url(#clip2)"><path d="M284.356 185C259.723 185 239.753 212.17 239.753 245.686 239.753 279.202 259.723 306.371 284.356 306.371 308.99 306.371 328.959 279.202 328.959 245.686 328.959 212.17 308.99 185 284.356 185ZM284.356 186.176C308.351 186.176 327.802 212.819 327.802 245.686 327.802 278.552 308.351 305.195 284.356 305.195 260.362 305.195 240.91 278.552 240.91 245.686 240.91 212.819 260.362 186.176 284.356 186.176Z" fill="#FFFFFF"/><path d="M284.356 186.755C260.734 186.755 241.584 213.139 241.584 245.686 241.584 278.232 260.734 304.616 284.356 304.616 307.979 304.616 327.128 278.232 327.128 245.686 327.128 213.139 307.979 186.755 284.356 186.755ZM284.356 187.866C307.367 187.866 326.021 213.753 326.021 245.686 326.021 277.618 307.367 303.505 284.356 303.505 261.345 303.505 242.691 277.618 242.691 245.686 242.691 213.753 261.345 187.866 284.356 187.866Z" fill="#FFFFFF"/><path d="M284.356 197.555C266.243 197.555 251.56 219.104 251.56 245.686 251.56 272.267 266.243 293.816 284.356 293.816 302.469 293.816 317.152 272.267 317.152 245.686 317.152 219.104 302.469 197.555 284.356 197.555ZM284.356 198.786C301.851 198.786 316.033 219.784 316.033 245.686 316.033 271.588 301.851 292.585 284.356 292.585 266.862 292.585 252.68 271.587 252.68 245.686 252.68 219.784 266.862 198.786 284.356 198.786Z" fill="#FFFFFF"/><path d="M285.856 206.683C285.027 206.803 282.535 206.186 280.02 209.268 277.504 212.349 276.389 215.827 274.592 219.418 272.685 223.054 269.393 227.193 268.735 229.128 267.655 229.8 266.59 230.657 265.807 231.698 265.024 232.738 264.447 233.964 264.273 235.538 264.237 236.583 264.352 237.695 265.464 239.238 266.047 239.831 266.421 240.164 267.45 239.706 267.659 240.439 267.632 242.457 267.824 242.608 268.467 243.407 268.269 245.208 268.2 245.792 268.13 246.375 267.847 249.648 267.847 249.648 267.774 250.755 267.62 251.862 267.339 252.969 267.244 253.508 267.017 254.059 267.979 254.507 268.299 254.731 268.542 254.731 269.159 254.797 269.321 254.699 269.473 254.686 269.633 254.541 270.001 254.441 270.197 254.342 270.273 254.507 270.293 254.893 270.163 255.228 270.008 255.555 270.069 256.052 270.139 256.544 270.891 256.692 271.237 256.852 271.446 257.166 271.265 257.918 271.338 258.275 271.463 258.607 272.545 258.497 273.095 258.837 273.399 259.376 273.361 260.192 273.136 260.547 273.134 260.959 273.14 261.373 273.457 262.01 273.603 262.622 274.905 263.401 276.38 263.956 278.479 264.125 281.985 263.424 282.083 264.13 282.005 264.835 281.897 265.541 281.609 268.188 280.524 271.234 279.89 272.385 278.96 273.878 277.777 275.116 276.559 276.319 275.05 277.629 274.464 279.017 273.934 280.409 273.642 281.98 273.835 282.3 273.843 282.876 275.864 284.753 278.457 286.053 281.766 286.627 284.619 286.813 287.479 287.043 290.251 286.659 292.422 286.193 294.224 285.159 295.585 283.443 297.301 281.622 298.756 279.423 299.89 276.761 300.822 274.566 301.574 272.291 301.762 269.762 301.643 268.105 301.617 266.427 300.046 265.097 299.225 264.476 298.659 263.598 298.081 262.732 297.108 260.884 296.269 258.985 295.956 256.887 297.062 257.165 298.311 257.118 299.36 256.932 301.506 256.717 303.049 255.623 304.164 253.906 305.308 252.947 305.63 250.787 305.723 248.294 305.662 246.192 304.832 244.514 303.477 243.125 301.916 242.064 300.569 242.018 299.36 242.62 299.411 242.057 299.361 241.342 299.297 240.603 299.173 238.887 299.826 236.93 301.232 234.739 302.118 233.205 303.117 231.727 303.606 229.907 304.135 228.084 304.539 226.168 302.167 222.886 302.275 220.839 302.05 218.826 301.044 216.897 299.732 214.675 297.637 212.295 295.055 210.97 294.013 210.493 292.991 209.962 292.123 209.016 291.483 208.487 288.095 206.874 285.856 206.683ZM284.046 207.752C284.097 207.752 284.149 207.753 284.2 207.757 286.171 207.739 288.082 208.198 289.971 209.018 290.752 209.503 291.528 210.015 292.248 210.846 292.636 211.221 293.069 211.55 293.745 211.634 295.284 212.187 296.418 213.312 297.551 214.44 299.88 216.262 300.603 217.846 301.263 219.421 301.539 220.411 301.661 220.83 301.428 221.263 301.243 221.61 301.107 222.363 301.232 222.857 302.378 224.096 303.395 226.301 303.29 227.207 303.384 229.44 302.788 230.918 301.887 232.062 301.427 232.836 301.111 233.742 299.734 233.669 297.915 233.822 297.092 233.746 296.552 233.606 296.807 232.866 297.037 232.082 296.802 230.517 296.565 230.291 296.908 229.918 297.145 229.571 295.894 229.878 294.744 229.613 293.34 229.288 292.665 229.126 292.102 229.504 291.593 230.139L290.657 231.305C290.185 229.163 289.226 227.206 287.756 225.442 286.832 223.542 287.083 221.523 286.914 219.547 286.909 213.795 286.978 214.21 286.664 213.053 286.477 212.697 286.29 212.515 286.102 212.486 286.193 213.046 286.261 212.809 286.18 213.407 286.216 214.345 286.58 211.798 286.695 223.519 286.7 223.927 286.859 224.561 287.506 225.915 288.563 227.574 289.744 229.176 290.127 231.148L290.314 232.282C286.12 231.452 286.655 229.145 286.04 228.5 285.255 225.463 284.193 223.216 282.702 222.195 282.289 222.079 281.955 222.074 281.954 222.542 283.384 224.425 284.724 226.454 285.416 229.54 285.449 230.861 285.033 232.02 283.451 232.755 281.86 233.404 280.248 233.178 278.616 232.062 277.507 231.127 276.836 229.948 276.931 228.342 277.188 226.805 277.694 225.709 278.616 225.347 279.276 225.224 279.836 225.152 280.082 225.741 280.406 226.378 280.195 226.588 279.988 226.766 279.504 227.113 279.496 227.438 279.926 227.743 280.833 227.97 281.095 227.673 281.392 227.049 281.86 226.109 281.891 225.074 281.205 224.37 280.513 223.73 278.902 223.277 278.148 223.834 277.173 224.354 276.503 225.312 276.027 226.545 275.219 228.943 275.64 230.231 276.401 231.211 277.092 232.134 277.653 233.075 279.832 233.796 281.434 234.284 283.035 234.61 284.636 233.197 285.445 232.642 285.98 232.018 286.29 231.337 286.575 231.455 286.87 231.563 286.913 231.967 286.466 233.44 285.387 234.098 284.2 234.615 281.895 235.835 280.126 235.312 279.177 234.93 277.258 234.111 276.222 232.911 275.216 231.494 274.806 230.392 274.52 229.275 274.81 228.09L275.122 226.955C275.033 226.888 274.949 226.807 274.779 226.924 274.307 228.042 273.577 228.726 272.564 228.941 271.564 229.032 270.605 228.996 269.663 228.909 270.165 227.37 271.01 225.956 272.159 224.654 273.401 222.969 274.246 221.471 274.959 220.381 276.577 217.135 278.251 213.708 279.552 211.508 280.904 208.727 282.455 207.76 284.046 207.754ZM273.652 229.378C273.968 232.001 274.584 232.635 275.804 234.059 277.025 235.484 280.736 237 283.306 235.982 283.801 236.337 284.153 236.983 284.398 237.842 284.032 238.35 283.736 239.048 283.494 239.891 283.745 240.78 283.761 241.345 283.431 241.436 282.867 241.412 282.142 240.902 281.747 240.096 281.351 239.29 280.449 238.93 279.641 238.709 278.834 238.489 277.616 238.071 276.475 237.275 276.049 236.833 275.664 236.56 275.321 236.455 273.044 235.883 271.911 235.442 271.078 235.037 271.294 236.402 272.234 236.488 273.402 236.786 274.571 237.085 275.617 237.099 275.945 237.748 275.774 238.054 275.305 237.86 274.479 237.795 273.652 237.73 272.555 237.354 271.546 236.834 269.822 235.535 269.628 234.352 269.425 233.461 269.902 233.368 270.404 233.565 270.922 233.933 271.478 233.906 271.406 233.47 271.266 232.988 271.543 233.339 271.804 233.607 272.201 234.564 272.325 234.282 272.44 234.374 272.466 233.477 272.493 232.579 271.818 231.983 271.234 231.506 270.431 231.14 269.659 230.924 269.02 231.349 269.058 231.191 269.062 231.033 268.926 230.876 268.775 230.735 268.631 230.636 268.45 230.584 269.249 230.144 270.077 229.843 271.11 229.993 272.111 230.114 272.535 229.903 272.825 229.615 273.02 229.378 273.333 229.405 273.652 229.378ZM292.957 229.897C293.137 229.896 293.332 229.922 293.545 229.98 294.287 230.429 295.19 230.551 296.104 230.649 296.588 232.323 296.371 232.907 296.104 233.413 295.67 234.041 295.236 234.922 294.803 235.063 294.663 235.624 294.907 235.644 295.354 235.375 295.94 234.946 296.827 234.648 298.641 234.751 299.535 234.83 300.31 234.699 300.913 234.483 299.464 236.786 299.204 237.573 298.883 238.496 297.912 238.803 296.737 238.289 295.597 237.916 295.016 237.765 294.435 238.109 293.854 238.607 293.406 239.014 292.957 239.376 292.509 239.432 292.738 237.907 292.069 237.29 291.009 237.069 290.296 236.998 289.583 236.942 288.869 237.047 288.169 236.51 288.409 236.163 288.561 235.798 288.872 235.429 289.07 235.289 289.266 235.152 289.94 234.762 290.336 234.147 290.722 233.525 291.041 232.961 291.197 232.424 291.163 231.92 291.474 230.734 291.985 229.905 292.957 229.897ZM268.369 230.622C268.271 230.854 268.049 230.91 268.224 231.364 267.626 231.804 266.83 232.379 266.481 233.279 266.368 233.744 266.554 233.708 266.79 233.591 267.519 233.107 267.839 232.735 268.224 232.566 268.062 232.846 267.194 233.584 266.724 234.104 266.254 234.625 266.115 234.752 265.996 235.687 265.836 236.689 265.992 236.676 266.155 236.628 266.477 236.511 266.467 236.036 266.658 235.664 267.124 234.541 267.739 233.775 268.621 233.658 269.402 235.426 270.306 237.129 272.194 238.317 273.305 239.057 274.853 239.216 276.627 239.075 277.53 239.037 278.231 239.396 278.635 240.323L279.517 241.728 280.73 242.151C282.096 244.323 282.989 247.271 285.87 249.128 286.59 249.544 287.434 249.918 288.936 250.064 289.093 250.194 289.144 250.483 289.178 250.8 289.255 250.795 289.399 250.615 289.663 250.109 290.224 250.072 290.98 249.848 290.855 250.466 290.778 250.846 290.519 251.193 289.862 251.469 289.29 251.584 288.538 251.512 288.45 252.137 288.424 252.587 288.433 253.013 289.465 252.784 290.141 252.582 290.685 252.195 290.987 251.469 291.139 250.848 291.133 249.989 291.671 249.953 292.172 249.973 292.414 250.129 292.354 250.443 292.325 250.635 292.312 250.827 292.446 251.019 293.387 252.246 293.74 253.565 297.25 254.392 300.45 254.664 301.055 253.915 302.21 252.848 303.342 251.881 303.578 250.655 303.863 249.443 303.687 249.314 303.51 249.182 303.333 249.38 302.99 251.085 302.403 251.808 301.368 252.596 300.333 253.383 298.522 253.782 296.47 253.068 294.606 252.469 293.814 251.674 293.382 250.704 293.853 250.681 293.792 250.475 293.912 250.373 292.711 249.024 291.293 248.917 289.764 248.939 287.282 249.082 285.149 248.132 283.728 246.117 282.694 244.872 282.25 243.777 281.872 242.697 282.231 242.257 282.625 242.432 283.026 242.697 283.559 244.348 284.859 245.365 285.74 245.849 286.62 246.334 287.003 246.424 287.736 246.575 288.319 246.514 288.407 246.234 288.329 245.881 287.738 245.252 286.626 245.063 285.552 244.841 284.605 244.262 283.942 243.443 283.494 242.445 283.828 242.298 284.178 242.246 284.554 242.35 285.51 242.95 286.539 243.404 287.174 242.839 287.81 242.274 287.748 242.204 287.892 241.972 286.387 242.309 285.29 241.928 284.741 240.585 284.453 239.375 284.869 238.46 285.615 237.543 286.333 237.252 286.757 236.888 286.987 236.771 286.398 235.864 286.017 235.05 285.802 234.312 286.243 233.964 286.571 233.552 286.8 233.082 287.087 232.536 287.522 232.187 288.297 232.294 288.974 232.641 289.176 233.083 289.233 233.555 289.211 233.991 288.905 234.1 288.578 234.186 288.763 234.225 288.994 234.288 289.14 234.485 288.612 234.994 288.023 235.398 287.736 236.109 287.542 236.759 287.414 237.372 288.079 237.527L288.641 237.748C287.854 238.786 287.113 239.846 287.954 241.625 288.512 242.39 289.247 242.731 290.138 242.697 289.918 244.577 290.427 246.339 292.259 247.52 294.091 248.701 296.111 248.393 297.437 247.694 298.764 246.994 299.168 246.14 299.496 245.282 299.35 245.011 299.27 245.048 299.184 245.061 298.46 246.023 297.696 246.962 295.628 247.142 292.214 246.955 291.793 245.743 291.058 244.667 290.517 243.785 290.544 242.897 291.042 241.972 291.173 241.369 291.024 241.252 290.699 241.436 290.602 241.637 290.429 241.731 289.982 241.696 289.105 241.16 288.417 240.529 288.609 239.45 288.882 238.055 289.591 237.928 290.325 237.874 291.114 237.91 291.867 238.075 292.165 239.891 292.196 240.175 292.216 240.459 292.103 240.742 292.263 240.876 292.443 240.887 292.633 240.837 293.238 239.726 294.116 239.204 295.191 239.103 296.205 239.112 297.062 239.44 297.967 239.671L298.716 239.797 298.466 242.854 299.246 243.674C300.478 243.242 301.7 243.198 302.896 244.147 303.496 244.738 304.093 245.376 304.612 247.079 305.067 248.775 305.08 249.817 304.83 250.168 304.708 250.538 304.835 250.725 304.3 251.397 304.339 251.583 304.362 251.776 304.643 251.839 304.309 252.905 303.316 253.805 302.334 254.708 300.675 255.886 299.719 255.927 298.498 255.969 296.171 255.94 294.801 255.288 293.756 254.424 293.012 253.677 292.786 252.989 292.384 252.28 292.422 253.221 292.271 254.149 293.148 255.147 293.681 255.758 294.224 256.356 295.045 256.618 295.929 260.006 296.953 263.425 299.501 266.002 296.014 266.429 292.856 267.278 290.192 268.655 287.044 270.426 283.946 272.391 281.127 275.409 280.248 276.272 279.396 277.521 278.48 277.861 276.297 278.712 275.646 279.437 275.646 279.437 275.199 280.008 275.216 281.089 273.975 282.808 274.114 282.416 274.535 281.652 274.487 281.383 274.547 279.414 275.326 278.487 276.164 277.437 278.026 275.19 280.02 274.618 281.656 269.524 282.247 268.038 282.626 265.91 282.759 263.038 284.921 262.265 286.762 261.069 288.384 259.583 288.88 259.117 288.978 258.813 289.067 258.513 288.713 258.862 288.913 258.571 287.888 259.576 286.863 260.581 283.891 262.373 280.222 262.971 278.125 263.095 275.356 263.131 274.576 262.012 273.795 260.893 274.023 260.784 273.969 259.694 273.915 258.604 273.275 258.119 272.679 257.732 272.253 257.814 272.053 257.643 272.039 257.264 272.105 256.993 272.289 256.815 272.679 256.796 273.355 256.751 273.875 256.787 274.443 256.796 274.528 256.756 274.607 256.562 274.686 256.328 274.456 256.146 274.259 255.978 273.76 255.682 273.458 255.932 273.421 255.963 273.407 256.083 272.908 256.067 272.584 255.934 272.304 255.771 272.098 255.949 271.848 256.083 271.554 256.172 270.774 255.636 270.9 255.347 270.76 254.991 270.909 254.94 271.014 254.862 271.091 254.768 271.031 254.15 270.973 254.157 270.914 253.965 271.445 253.966 271.84 254.001 272.249 253.531 272.658 253.06 272.486 252.264 272.282 251.937 272.122 251.678 271.536 251.214 271.298 251.438 271.505 251.623 271.675 251.849 271.852 252.182 271.969 252.44 271.863 252.719 271.598 252.917 271.135 253.047 270.677 253.198 270.186 253.185 269.969 253.401 269.883 253.562 269.723 253.631 269.026 253.822 268.421 253.759 267.959 253.296 268.246 252.683 268.443 251.733 268.554 250.466 269.007 245.411 269.425 246.275 269.061 243.126 268.474 242.208 268.233 241.274 268.311 240.145 268.256 238.734 268.066 237.705 268.179 235.887 268.3 234.984 267.952 235.105 267.827 235.088 267.682 235.377 267.648 235.628 267.584 236.266 267.44 237.24 267.508 238.213 267.495 239.186 266.527 238.72 265.453 237.624 265.367 236.032 265.28 234.44 265.643 233.087 266.315 232.299 266.987 231.51 267.569 230.829 268.368 230.622ZM284.976 235.018C285.313 235.821 285.537 236.227 285.759 236.623 285.505 236.803 285.304 237.026 285.197 237.325 284.974 236.636 284.63 236.099 284.292 235.553 284.419 235.148 284.709 235.11 284.976 235.018ZM299.933 266.498C301.041 268.546 300.819 269.77 300.586 272.086 300.354 274.401 298.466 277.678 297.312 279.895 296.158 282.112 295.117 283.38 293.382 284.939 291.251 286.534 288.517 286.45 285.424 286.419 282.331 286.389 277.686 284.84 276.537 284.088 275.388 283.335 275.171 282.811 274.978 282.228 275.405 281.899 275.621 281.511 275.726 281.093 275.859 280.442 276.123 279.995 276.372 279.489 277.963 278.774 278.394 278.654 279.813 277.783 282.435 274.721 285.271 272.176 288.516 270.186 291.761 268.195 295.405 266.673 299.933 266.498Z" fill="#FFFFFF"/><path d="M277.894 236.558C277.676 236.132 277.895 236.151 278.191 236.203 278.763 236.59 279.742 236.956 281.201 237.322 281.674 237.498 282.128 237.625 283.026 238.883 283.215 239.483 282.965 239.409 282.729 239.355 282.09 238.725 281.711 237.963 280.374 237.685 279.366 237.459 278.18 236.943 277.894 236.558Z" fill="#FFFFFF"/><path d="M298.95 250.154C298.527 250.425 298.551 250.591 298.918 250.674 298.918 250.674 300.529 250.843 301.863 248.846 302.643 247.346 301.971 245.718 301.971 245.718 301.493 245.525 301.355 245.658 301.42 245.985 301.42 245.985 302.197 247.344 301.244 248.816 300.165 250.122 298.95 250.154 298.95 250.154Z" fill="#FFFFFF"/><path d="M300.074 251.591C299.454 251.796 299.533 252.118 299.6 252.438 299.75 252.813 300.116 252.817 300.648 252.539 301.31 252.121 301.955 251.871 302.523 250.744 303.091 249.617 303.356 248.686 303.163 247.869 302.87 248.801 302.533 249.899 301.894 250.666 301.255 251.434 300.681 251.618 300.074 251.591Z" fill="#FFFFFF"/><path d="M273.575 241.618C273.094 241.623 272.676 241.664 272.019 241.706 270.968 241.775 270.319 242.454 270.235 242.992 270.15 243.53 270.677 244.037 271.025 244.045 271.597 243.961 271.572 244.237 271.62 244.514 271.718 245.092 271.901 245.108 272.26 245.227 272.599 245.422 272.764 245.769 272.9 246.141 272.765 246.237 272.586 246.547 272.613 246.988 272.64 247.43 272.848 247.344 273.065 247.69 273.142 247.807 273.338 248.109 273.351 249.191 273.912 248.986 274.103 248.746 274.135 248.214 274.249 247.69 273.861 247.37 274.069 247.144 274.429 247.053 274.594 246.947 274.675 246.765 274.417 246.597 274.117 246.92 273.448 246.843 274.346 246.404 273.844 246.462 275.701 245.807 276.192 245.609 276.722 245.221 276.686 245.002 276.649 244.782 275.633 243.972 274.537 243.575 273.442 243.179 273.048 243.307 272.245 243.26 271.032 242.765 272.155 242.448 272.612 242.441 273.069 242.433 276.899 242.37 277.377 242.597 277.572 242.456 277.716 242.315 277.664 242.173 276.66 241.959 275.636 241.759 274.572 241.664 274.174 241.629 273.863 241.616 273.574 241.618ZM272.782 243.945C274.168 244.057 274.515 244.26 274.902 244.46 273.706 244.514 273.47 244.319 272.415 244.308 272.373 244.116 272.489 243.993 272.782 243.946ZM274.28 245.202C274.623 245.197 274.87 245.232 275.027 245.351 274.924 245.598 274.955 245.85 274.016 245.917 273.782 245.862 273.755 245.374 273.904 245.217 274.04 245.209 274.165 245.203 274.28 245.201ZM273.106 245.282C273.144 245.278 273.19 245.288 273.241 245.283 273.206 245.424 273.245 245.553 273.312 245.677 273.345 245.739 273.481 245.875 273.521 245.935 273.561 245.996 273.543 246.023 273.55 246.086 273.482 246.011 273.41 245.971 273.348 245.906 273.285 245.84 273.234 245.749 273.184 245.691 273.085 245.575 273.02 245.474 273.016 245.378 273.038 245.307 273.068 245.287 273.106 245.282Z" fill="#FFFFFF"/><path d="M299.824 267.758C299.934 267.323 300.122 267.046 300.479 266.86 300.704 267.014 300.97 266.775 300.962 267.632 300.614 267.894 300.211 267.769 299.824 267.759Z" fill="#FFFFFF"/><path d="M297.281 268.042C297.583 266.93 298.037 267.081 298.498 267.096 298.959 267.112 299.38 266.822 299.075 267.538 298.89 268.016 298.755 268.177 298.529 268.153 297.998 268.227 297.646 268.178 297.281 268.042Z" fill="#FFFFFF"/><path d="M298.564 269.323C298.73 269.208 299.059 268.798 299.095 268.647 299.131 268.495 299.423 268.26 299.839 268.294 300.255 268.329 300.236 268.387 300.198 268.673 300.16 268.958 299.987 269.233 299.699 269.272 299.411 269.31 299.034 269.256 298.884 269.468 298.735 269.681 298.695 270.026 298.41 270.183 298.124 270.339 297.593 270.306 297.344 270.343 297.094 270.38 297.15 270.016 297.145 269.985 297.14 269.955 297.323 269.479 297.638 269.35 297.953 269.221 298.398 269.439 298.564 269.323Z" fill="#FFFFFF"/><path d="M299.396 270.464C299.556 270.318 299.949 270.296 300.063 270.237 300.178 270.179 300.463 270.061 300.648 269.903 300.832 269.745 300.594 268.953 300.99 268.989 301.386 269.026 301.362 270.291 301.177 270.65 300.993 271.009 300.604 270.953 300.317 271.018 300.03 271.083 299.73 271.123 299.545 271.062 299.232 270.982 299.246 270.612 299.396 270.463Z" fill="#FFFFFF"/><path d="M294.395 268.577C294.476 268.481 294.638 268.243 294.792 268.131 294.945 268.019 295.119 267.958 295.288 267.908 295.457 267.858 295.605 267.841 295.795 267.83 295.985 267.821 296.31 267.772 296.424 267.853 296.538 267.932 296.521 267.896 296.501 268.042 296.481 268.187 296.256 268.446 296.093 268.577 295.93 268.708 295.747 268.757 295.564 268.822 295.381 268.887 295.17 268.924 295.001 268.967 294.832 269.01 294.677 269.104 294.549 269.078 294.422 269.052 294.333 268.965 294.296 268.889 294.258 268.813 294.275 268.754 294.296 268.7 294.315 268.645 294.313 268.673 294.395 268.577Z" fill="#FFFFFF"/><path d="M295.222 269.814C295.154 269.685 295.221 269.579 295.288 269.468 295.355 269.358 295.424 269.263 295.531 269.168 295.637 269.072 295.806 268.979 295.928 268.911 296.05 268.843 296.128 268.788 296.259 268.755 296.389 268.722 296.567 268.726 296.7 268.733 296.833 268.738 296.984 268.724 297.053 268.788 297.121 268.853 297.102 268.89 297.097 268.989 297.092 269.088 297.026 269.243 296.975 269.357 296.925 269.47 296.866 269.594 296.799 269.669 296.732 269.744 296.687 269.773 296.6 269.814 296.514 269.854 296.446 269.869 296.281 269.892 296.115 269.914 295.8 269.929 295.608 269.914 295.416 269.9 295.29 269.943 295.222 269.814Z" fill="#FFFFFF"/><path d="M296.884 271.549C296.912 271.688 296.893 271.62 297.04 271.675 297.187 271.731 297.507 271.736 297.71 271.667 297.914 271.598 298.039 271.492 298.155 271.36 298.271 271.227 298.311 271.063 298.358 270.926 298.404 270.79 298.53 270.67 298.451 270.564 298.373 270.457 298.177 270.544 298.038 270.548 297.899 270.552 297.789 270.549 297.625 270.627 297.46 270.703 297.271 270.837 297.133 271.005 296.996 271.172 296.855 271.41 296.884 271.549Z" fill="#FFFFFF"/><path d="M298.1 272.747C297.958 272.53 298.236 272.403 298.334 272.219 298.432 272.036 298.407 271.846 298.591 271.754 298.776 271.663 299.14 271.622 299.262 271.778 299.384 271.933 299.201 272.076 299.137 272.251 299.073 272.425 299.016 272.643 298.802 272.763 298.588 272.883 298.242 272.965 298.1 272.747Z" fill="#FFFFFF"/><path d="M298.442 273.86C298.37 273.747 298.404 273.691 298.437 273.564 298.47 273.438 298.564 273.243 298.68 273.141 298.796 273.039 298.931 273.006 299.088 272.974 299.245 272.941 299.511 272.887 299.612 272.965 299.712 273.04 299.69 273.038 299.673 273.188 299.657 273.337 299.489 273.629 299.353 273.778 299.217 273.928 299.075 274.067 298.901 274.079 298.727 274.092 298.515 273.975 298.443 273.862Z" fill="#FFFFFF"/><path d="M294.715 271.246C294.715 271.228 294.684 270.954 294.747 270.823 294.811 270.691 294.935 270.608 295.051 270.51 295.167 270.413 295.207 270.287 295.393 270.226 295.578 270.165 295.899 270.251 296.082 270.254 296.265 270.259 296.387 270.147 296.49 270.236 296.593 270.327 296.605 270.513 296.567 270.671 296.529 270.829 296.365 270.997 296.247 271.094 296.13 271.192 296.166 271.209 295.9 271.267 295.634 271.325 294.714 271.262 294.714 271.245Z" fill="#FFFFFF"/><path d="M292.454 270.871C292.472 271.008 292.495 270.989 292.653 271.029 292.811 271.069 293.082 271 293.273 270.942 293.464 270.884 293.764 270.73 293.784 270.71 293.804 270.69 294.09 270.581 294.244 270.473 294.398 270.366 294.647 270.268 294.712 270.115 294.777 269.962 294.867 269.866 294.688 269.713 294.51 269.56 293.97 269.733 293.69 269.819 293.41 269.906 293.196 270.061 293.027 270.174 292.859 270.287 292.774 270.352 292.668 270.469 292.563 270.588 292.437 270.735 292.454 270.871Z" fill="#FFFFFF"/><path d="M291.288 270.008C291.312 270.157 291.323 270.138 291.475 270.099 291.628 270.06 291.865 270.014 292.115 269.918 292.365 269.821 292.621 269.731 292.852 269.579 293.083 269.426 293.286 269.272 293.378 269.114 293.47 268.956 293.501 268.861 293.441 268.771 293.38 268.681 293.413 268.672 293.207 268.688 293 268.704 292.545 268.882 292.271 269.008 291.996 269.134 291.793 269.182 291.616 269.366 291.438 269.55 291.264 269.86 291.288 270.008Z" fill="#FFFFFF"/><path d="M298.872 275.513C298.856 275.237 299.261 274.988 299.442 274.741 299.622 274.494 299.777 274.217 299.941 273.969 300.105 273.72 300.122 273.419 300.424 273.252 300.812 273.556 300.136 274.774 299.956 275.253 299.777 275.733 299.804 276.207 299.535 276.246 299.266 276.285 299.251 275.924 299.153 275.813 299.055 275.702 298.888 275.789 298.872 275.513Z" fill="#FFFFFF"/><path d="M293.117 273.196C293.054 273.375 292.997 273.359 293.111 273.441 293.223 273.522 293.451 273.327 293.657 273.236 293.863 273.144 294.157 272.997 294.343 272.881 294.529 272.765 294.673 272.697 294.78 272.558 294.887 272.419 294.964 272.233 294.967 272.085 294.972 271.938 294.973 271.79 294.842 271.73 294.71 271.671 294.586 271.808 294.382 271.927 294.179 272.047 293.869 272.273 293.657 272.487 293.445 272.701 293.182 273.018 293.119 273.196Z" fill="#FFFFFF"/><path d="M295.16 273.188C294.938 273.633 295.344 273.219 295.644 273.259 295.83 273.201 296.015 273.207 296.166 273.125 296.317 273.043 296.413 272.973 296.47 272.85 296.724 272.352 296.78 272.257 296.626 272.101 296.471 271.967 296.313 272.11 296.166 272.18 296.02 272.248 295.645 272.516 295.48 272.692 295.315 272.868 295.228 273.056 295.16 273.188Z" fill="#FFFFFF"/><path d="M295.238 274.583C295.215 274.768 295.138 274.814 295.308 274.891 295.478 274.967 295.79 274.766 296.041 274.694 296.292 274.621 296.567 274.477 296.782 274.386 296.998 274.296 297.172 274.266 297.305 274.103 297.437 273.94 297.595 273.707 297.531 273.535 297.467 273.363 297.385 273.339 297.164 273.307 296.944 273.274 296.548 273.423 296.291 273.543 296.034 273.663 295.89 273.859 295.698 274.032 295.506 274.205 295.261 274.399 295.238 274.583Z" fill="#FFFFFF"/><path d="M294.24 277.074C294.224 277.235 294.234 277.3 294.38 277.373 294.528 277.447 294.769 277.328 295.027 277.231 295.286 277.135 295.72 276.95 295.901 276.758 296.081 276.567 296.145 276.394 296.15 276.23 296.155 276.066 296.207 275.959 296.002 275.86 295.797 275.761 295.303 276.012 295.074 276.144 294.845 276.275 294.762 276.406 294.622 276.561 294.482 276.717 294.256 276.912 294.24 277.074Z" fill="#FFFFFF"/><path d="M296.408 277.342C296.359 277.534 296.182 277.644 296.26 277.783 296.337 277.922 296.681 277.822 296.72 277.822 296.759 277.822 296.998 277.94 297.188 277.751 297.377 277.563 297.7 277.235 297.858 277.105 298.017 276.975 298.103 276.795 298.077 276.656 298.05 276.517 298.067 276.497 297.858 276.443 297.65 276.39 297.234 276.555 296.985 276.703 296.736 276.851 296.457 277.149 296.408 277.342Z" fill="#FFFFFF"/><path d="M297.64 275.844C297.933 275.701 297.9 275.469 298.069 275.372 298.238 275.274 298.281 275.192 298.28 275.056 298.278 274.92 298.24 274.785 298.03 274.702 297.82 274.618 297.368 274.734 297.125 274.891 296.883 275.048 296.765 275.363 296.65 275.545 296.259 276.194 297.17 276.066 297.64 275.844Z" fill="#FFFFFF"/><path d="M292.39 277.006C292.141 277.192 291.656 277.138 291.273 277.359 290.891 277.581 290.47 278.039 290.27 278.329 290.069 278.619 289.889 278.721 290.016 278.897 290.143 279.074 290.362 278.873 290.667 278.797 290.972 278.721 291.353 278.55 291.682 278.24 292.011 277.93 292.087 277.351 292.415 277.031 292.743 276.71 293.187 276.652 293.534 276.457 293.882 276.261 294.223 276.039 294.45 275.821 294.677 275.604 294.869 275.447 294.869 275.242 294.868 275.037 294.911 275.008 294.648 274.93 294.386 274.851 293.973 275.081 293.645 275.342 293.317 275.603 292.988 276.127 292.784 276.401 292.581 276.675 292.639 276.82 292.39 277.006Z" fill="#FFFFFF"/><path d="M292.049 275.442C291.935 275.32 292.153 275.082 292.298 274.867 292.444 274.653 292.587 274.469 292.813 274.3 293.039 274.13 293.365 273.884 293.546 273.858 293.727 273.833 293.713 273.799 293.78 273.921 293.846 274.044 293.76 274.25 293.6 274.489 293.44 274.728 292.975 274.992 292.735 275.143 292.495 275.294 292.346 275.399 292.212 275.45 292.078 275.502 292.162 275.565 292.048 275.442Z" fill="#FFFFFF"/><path d="M291.269 272.889C291.171 272.813 291.179 272.662 291.253 272.463 291.327 272.265 291.595 272.012 291.83 271.849 292.064 271.685 292.423 271.566 292.633 271.51 292.843 271.453 292.958 271.414 293.062 271.455 293.166 271.495 293.21 271.463 293.218 271.636 293.224 271.808 292.948 272.12 292.758 272.282 292.568 272.444 292.323 272.509 292.126 272.597 291.93 272.686 291.725 272.773 291.58 272.818 291.436 272.863 291.366 272.965 291.268 272.889Z" fill="#FFFFFF"/><path d="M289.448 272.4C289.337 272.251 289.644 271.898 289.845 271.664 290.047 271.43 290.376 271.208 290.656 271.057 290.936 270.905 291.271 270.764 291.5 270.75 291.613 271.099 291.504 271.257 291.334 271.502 291.162 271.748 290.77 271.859 290.496 271.987 290.222 272.115 289.898 272.286 289.718 272.338 289.539 272.391 289.559 272.548 289.448 272.399Z" fill="#FFFFFF"/><path d="M288.395 271.686C288.478 271.432 288.564 271.253 288.698 271.034 288.832 270.816 288.997 270.64 289.206 270.488 289.414 270.336 289.657 270.157 289.834 270.12 290.012 270.084 290.089 270.048 290.16 270.139 290.23 270.228 290.192 270.288 290.099 270.49 290.006 270.692 289.702 271.03 289.476 271.203 289.25 271.376 289.062 271.417 288.875 271.498 288.688 271.579 288.748 271.563 288.395 271.688Z" fill="#FFFFFF"/><path d="M290.302 275.23C290.284 274.883 290.303 274.731 290.395 274.52 290.486 274.309 290.651 274.246 290.879 274.055 291.106 273.865 291.625 273.604 291.854 273.512 292.082 273.419 292.018 273.277 292.142 273.37 292.266 273.462 292.25 273.725 292.166 273.937 292.081 274.149 291.773 274.358 291.588 274.489 291.404 274.619 291.305 274.62 291.089 274.741 290.873 274.862 290.686 275.009 290.302 275.229Z" fill="#FFFFFF"/><path d="M289.428 274.095C289.502 273.744 289.403 273.627 289.498 273.425 289.594 273.223 289.943 272.984 289.966 272.952 289.99 272.921 290.346 272.785 290.465 272.763 290.585 272.741 290.582 272.683 290.66 272.763 290.739 272.843 290.702 273.091 290.66 273.244 290.619 273.396 290.578 273.529 290.427 273.646 290.275 273.762 289.937 273.743 289.771 273.827 289.605 273.91 289.588 274.185 289.428 274.095Z" fill="#FFFFFF"/><path d="M287.198 273.984C287.203 273.798 287.204 273.565 287.33 273.354 287.456 273.143 287.786 272.982 287.993 272.865 288.201 272.749 288.358 272.505 288.531 272.629 288.704 272.753 288.615 273.138 288.547 273.307 288.479 273.476 288.386 273.516 288.251 273.598 288.116 273.68 287.875 273.717 287.744 273.764 287.613 273.811 287.554 273.837 287.463 273.874 287.372 273.911 287.192 274.171 287.198 273.984Z" fill="#FFFFFF"/><path d="M285.092 274.308C285.283 273.87 285.232 273.671 285.404 273.378 285.576 273.084 286.067 272.66 286.106 272.613 286.145 272.566 286.512 272.291 286.691 272.235 286.87 272.178 286.952 272.213 287.12 272.219 287.078 272.485 286.984 272.8 286.769 273.086 286.554 273.372 286.099 273.633 285.818 273.834 285.536 274.036 285.697 273.996 285.092 274.307Z" fill="#FFFFFF"/><path d="M284.788 276.262C284.782 276.23 284.972 275.72 285.1 275.505 285.228 275.291 285.498 274.977 285.529 274.977 285.56 274.977 286.034 274.535 286.207 274.434 286.381 274.332 286.393 274.226 286.519 274.307 286.646 274.389 286.597 274.664 286.551 274.875 286.504 275.085 286.372 275.228 286.184 275.442 285.995 275.657 285.625 275.9 285.381 276.018 285.136 276.135 284.796 276.293 284.788 276.262Z" fill="#FFFFFF"/><path d="M286.551 276.751C286.458 276.471 286.652 276.081 286.683 276.081 286.715 276.081 286.945 275.56 287.112 275.372 287.28 275.183 287.497 275.045 287.65 274.954 287.804 274.862 287.869 274.726 288.009 274.796 288.149 274.866 288.184 275.108 288.142 275.332 288.1 275.556 287.828 275.758 287.643 275.947 287.458 276.135 287.238 276.326 287.05 276.451 286.862 276.576 286.917 276.621 286.551 276.751Z" fill="#FFFFFF"/><path d="M287.814 277.547C287.693 277.279 287.711 277.287 287.744 277.113 287.777 276.939 288.025 276.632 288.063 276.577 288.102 276.522 288.537 276.202 288.765 276.041 288.994 275.881 289.136 275.574 289.342 275.71 289.549 275.847 289.45 276.163 289.327 276.412 289.203 276.661 288.907 276.828 288.71 276.987 288.514 277.146 288.41 277.172 288.258 277.263 288.106 277.354 287.935 277.357 287.814 277.547Z" fill="#FFFFFF"/><path d="M289.389 277.681C289.299 277.572 289.385 277.27 289.491 277.074 289.597 276.878 290.005 276.617 290.021 276.585 290.037 276.553 290.408 276.249 290.559 276.16 290.71 276.07 290.811 276.035 290.894 276.018 290.978 275.999 290.995 275.957 291.043 276.018 291.091 276.078 291.01 276.181 290.972 276.325 290.935 276.469 290.84 276.861 290.809 276.877 290.777 276.893 290.425 277.217 290.286 277.318 290.147 277.418 290.1 277.438 289.99 277.499 289.879 277.56 289.727 277.656 289.623 277.68 289.519 277.705 289.48 277.789 289.389 277.68Z" fill="#FFFFFF"/><path d="M291.721 279.477C291.721 279.454 291.825 279.146 291.916 278.965 292.007 278.784 292.384 278.248 292.415 278.201 292.446 278.154 292.871 277.996 293 277.972 293.129 277.948 293.674 277.503 293.678 277.657 293.683 277.81 293.611 278.242 293.437 278.5 293.262 278.759 292.993 278.933 292.75 279.076 292.508 279.219 292.074 279.26 291.908 279.344 291.742 279.427 291.721 279.501 291.721 279.477Z" fill="#FFFFFF"/><path d="M293.546 279.982C293.519 279.962 293.439 279.957 293.421 279.808 293.403 279.66 293.517 279.52 293.655 279.296 293.793 279.072 294.132 278.772 294.365 278.595 294.597 278.417 294.775 278.23 294.965 278.177 295.155 278.124 295.244 277.993 295.394 278.169 295.544 278.344 295.34 278.769 295.184 279.044 295.028 279.319 294.789 279.475 294.451 279.643 294.112 279.811 293.573 280.001 293.546 279.981Z" fill="#FFFFFF"/><path d="M295.659 280.092C295.774 279.953 295.935 279.593 296.096 279.375 296.257 279.157 296.411 279.007 296.572 278.926 296.732 278.844 297.027 278.544 297.258 278.721 297.489 278.898 297.283 279.416 297.118 279.651 296.953 279.886 296.755 279.838 296.509 279.927 296.264 280.016 295.545 280.231 295.659 280.092Z" fill="#FFFFFF"/><path d="M279.693 278.909C279.596 278.804 279.682 278.663 279.726 278.619 279.77 278.574 279.996 278.317 280.156 278.173 280.316 278.029 280.502 277.907 280.686 277.761 280.87 277.614 281.103 277.375 281.259 277.292 281.416 277.21 281.452 277.109 281.568 277.203 281.685 277.298 281.629 277.546 281.535 277.783 281.442 278.02 281.149 278.326 280.929 278.507 280.708 278.688 280.469 278.814 280.256 278.875 280.043 278.936 279.791 279.013 279.693 278.909Z" fill="#FFFFFF"/><path d="M281.601 278.786C281.478 278.652 281.888 278.151 281.943 278.14 281.998 278.131 282.154 277.845 282.395 277.671 282.637 277.498 282.913 277.206 283.234 277.214 283.554 277.223 283.749 276.899 283.884 277.003 284.019 277.106 283.883 277.276 283.785 277.471 283.687 277.666 283.49 277.874 283.3 278.028 283.109 278.183 282.873 278.275 282.66 278.385 282.446 278.494 282.199 278.623 282.02 278.686 281.841 278.748 281.725 278.92 281.601 278.786Z" fill="#FFFFFF"/><path d="M283.675 279.042C283.63 278.925 283.805 278.512 283.862 278.34 283.919 278.168 284.244 278.019 284.447 277.872 284.65 277.725 284.86 277.668 285.042 277.56 285.224 277.451 285.4 277.186 285.539 277.226 285.677 277.265 285.66 277.303 285.649 277.471 285.637 277.638 285.468 277.885 285.263 278.095 285.058 278.305 284.64 278.505 284.403 278.652 284.165 278.8 283.966 278.929 283.84 278.987 283.714 279.044 283.719 279.159 283.675 279.042Z" fill="#FFFFFF"/><path d="M284.998 279.756C284.924 279.711 285.243 279.316 285.263 279.254 285.283 279.192 285.681 278.769 285.869 278.608 286.058 278.446 286.16 278.341 286.211 278.329 286.262 278.32 286.768 277.961 286.906 278.017 287.044 278.073 287.052 278.294 286.961 278.507 286.871 278.72 286.599 278.919 286.399 279.087 286.199 279.254 285.951 279.421 285.77 279.51 285.589 279.6 285.507 279.575 285.373 279.622 285.239 279.669 285.072 279.8 284.998 279.755Z" fill="#FFFFFF"/><path d="M282.451 276.78C282.386 276.784 282.66 276.345 282.671 276.289 282.683 276.234 282.835 275.739 282.98 275.531 283.125 275.324 283.338 275.184 283.498 275.063 283.659 274.943 283.799 274.796 283.928 274.796 284.058 274.796 284.098 274.756 284.16 274.941 284.222 275.126 283.998 275.535 283.84 275.777 283.682 276.019 283.425 276.231 283.245 276.367 283.064 276.504 282.85 276.593 282.792 276.624 282.735 276.654 282.515 276.776 282.451 276.78Z" fill="#FFFFFF"/><path d="M286.895 279.99C286.895 279.962 286.967 279.562 287.116 279.321 287.265 279.08 287.606 278.796 287.822 278.619 288.037 278.442 288.305 278.175 288.483 278.251 288.661 278.327 288.621 278.557 288.572 278.73 288.522 278.903 288.075 279.187 288.075 279.243 288.075 279.299 287.677 279.655 287.469 279.789 287.261 279.923 286.895 280.018 286.895 279.99Z" fill="#FFFFFF"/><path d="M287.38 281.383C287.565 280.818 287.799 280.569 287.799 280.513 287.799 280.458 288.131 280.018 288.362 279.8 288.593 279.583 288.985 279.311 289.178 279.232 289.371 279.152 289.339 279.133 289.432 279.187 289.525 279.242 289.584 279.378 289.564 279.555 289.544 279.732 289.379 279.927 289.2 280.124 289.021 280.321 288.774 280.479 288.472 280.692 288.17 280.905 288.122 280.9 287.38 281.383Z" fill="#FFFFFF"/><path d="M289.123 281.628C289.164 281.391 289.274 281.105 289.443 280.87 289.612 280.635 290.115 280.324 290.149 280.257 290.181 280.19 290.535 279.784 290.711 279.823 290.887 279.861 290.868 280.007 290.887 280.157 290.905 280.307 290.931 280.525 290.766 280.669 290.601 280.815 290.276 281.023 290.038 281.171 289.8 281.319 289.501 281.494 289.343 281.561 289.186 281.628 289.082 281.865 289.123 281.628Z" fill="#FFFFFF"/><path d="M291.053 281.851C291.069 281.487 291.229 281.294 291.252 281.216 291.274 281.138 291.638 280.708 291.891 280.525 292.173 280.32 292.485 280.187 292.84 280.09 292.86 280.415 292.706 280.687 292.542 280.937 292.385 281.176 292.155 281.366 291.913 281.517 291.652 281.68 291.354 281.818 291.053 281.851Z" fill="#FFFFFF"/><path d="M293.126 282.052C293.106 281.595 293.469 281.436 293.689 281.126 293.908 280.817 294.582 280.391 294.637 280.369 294.692 280.346 295.084 279.95 295.288 280.19 295.492 280.43 295.096 280.991 294.902 281.271 294.708 281.552 294.273 281.829 294.218 281.851 294.163 281.873 293.775 282.039 293.612 282.074 293.449 282.108 293.312 282.163 293.126 282.051Z" fill="#FFFFFF"/><path d="M294.582 282.72C294.538 282.726 295.237 281.879 295.244 281.818 295.249 281.756 295.819 281.437 295.895 281.461 295.97 281.485 296.54 281.391 296.622 281.628 296.755 282.007 296.141 282.433 295.884 282.575 295.626 282.717 295.538 282.607 295.321 282.631 295.104 282.655 294.582 282.72 294.582 282.72Z" fill="#FFFFFF"/><path d="M288.157 285.774C287.928 285.88 288.131 285.336 288.251 285.112 288.389 284.852 288.554 284.583 288.796 284.419 288.967 284.303 289.212 284.14 289.389 284.245 289.61 284.377 289.643 284.757 289.561 285.002 289.448 285.338 289.019 285.384 288.703 285.538 288.478 285.648 288.433 285.647 288.157 285.774Z" fill="#FFFFFF"/><path d="M290.294 285.696C290.343 285.399 290.369 285.315 290.512 285.081 290.648 284.859 290.747 284.657 290.98 284.545 291.23 284.425 291.5 284.325 291.776 284.308 291.839 284.304 291.928 284.286 291.963 284.34 292.106 284.564 291.897 284.885 291.76 285.112 291.596 285.386 291.319 285.524 291.027 285.648 290.773 285.756 290.249 285.971 290.294 285.695Z" fill="#FFFFFF"/><path d="M289.233 282.527C289.327 282.464 289.843 281.888 290.122 282.07 290.393 282.247 290.132 282.585 289.982 282.874 289.812 283.203 289.265 283.457 289.109 283.552 288.953 283.646 288.711 283.955 288.469 283.914 288.741 283.36 288.905 282.751 289.233 282.527Z" fill="#FFFFFF"/><path d="M290.497 284.34C290.513 284.308 290.559 283.946 290.902 283.41 291.245 282.874 291.651 282.59 291.713 282.59 291.776 282.59 292.071 282.306 292.228 282.401 292.385 282.496 292.404 282.692 292.306 282.953 292.208 283.214 291.705 283.488 291.464 283.678 291.222 283.868 291.033 283.994 290.871 284.104 290.709 284.213 290.481 284.371 290.497 284.34Z" fill="#FFFFFF"/><path d="M292.306 284.387C292.205 284.218 292.54 283.662 292.633 283.583 292.727 283.505 293.028 283.152 293.226 283.047 293.424 282.943 293.624 282.933 293.756 282.921 293.889 282.912 293.895 282.738 294.006 282.937 294.117 283.137 293.667 283.702 293.491 283.93 293.316 284.159 293.194 284.263 293.039 284.34 292.884 284.417 292.741 284.414 292.618 284.419 292.494 284.424 292.407 284.557 292.306 284.387Z" fill="#FFFFFF"/><path d="M286.504 283.694C286.169 283.791 286.659 282.843 286.737 282.811 286.815 282.779 286.989 282.472 287.237 282.338 287.475 282.209 287.722 282.084 287.986 282.023 288.077 282.002 288.208 281.933 288.266 282.007 288.444 282.236 288.177 282.6 288.017 282.842 287.83 283.125 287.534 283.22 287.237 283.378 286.954 283.528 286.504 283.694 286.504 283.694Z" fill="#FFFFFF"/><path d="M286.005 285.585C286.083 284.86 286.363 284.907 286.395 284.829 286.426 284.75 286.66 284.34 286.738 284.293 286.816 284.246 287.113 283.891 287.299 283.993 287.506 284.107 287.442 284.479 287.362 284.703 287.251 285.01 286.936 285.108 286.675 285.302 286.159 285.551 285.961 285.812 286.005 285.585Z" fill="#FFFFFF"/><path d="M283.868 286.074C284.213 285.974 284.683 285.372 285.007 285.286 285.337 285.198 285.49 285.01 285.646 284.703 285.742 284.513 285.85 284.263 285.755 284.072 285.719 283.999 285.618 283.963 285.537 283.962 285.285 283.957 285.059 284.135 284.85 284.277 284.57 284.469 284.296 284.696 284.117 284.986 283.999 285.178 283.961 285.411 283.915 285.633 283.885 285.778 283.727 286.115 283.868 286.074Z" fill="#FFFFFF"/><path d="M284.897 283.363C285.16 283.375 285.396 282.93 285.755 282.685 286.147 282.417 286.211 282.536 286.379 282.323 286.501 282.168 286.619 282.06 286.582 281.865 286.562 281.759 286.531 281.746 286.426 281.723 286.119 281.657 285.826 281.947 285.583 282.149 285.34 282.351 285.068 282.496 284.96 282.795 284.877 283.022 284.658 283.352 284.897 283.363Z" fill="#FFFFFF"/><path d="M283.868 282.259C283.981 281.834 284.336 281.503 284.367 281.44 284.398 281.377 284.912 280.866 285.194 280.589 285.341 280.444 285.41 280.301 285.615 280.321 285.737 280.33 285.85 280.339 285.864 280.463 285.9 280.762 285.713 281.067 285.521 281.298 285.283 281.584 284.907 281.714 284.585 281.897 284.353 282.03 284.298 282.002 283.868 282.26Z" fill="#FFFFFF"/><path d="M281.95 285.554C282.119 285.016 282.324 284.671 282.386 284.592 282.449 284.513 282.713 283.901 283.166 283.678 283.367 283.579 283.64 283.321 283.79 283.489 283.974 283.695 283.81 283.915 283.665 284.151 283.431 284.534 283.05 284.825 282.683 285.081 282.444 285.247 282.525 285.146 281.95 285.554Z" fill="#FFFFFF"/><path d="M282.417 282.118C282.48 281.63 282.529 281.443 282.698 281.156 282.856 280.888 283.097 280.668 283.353 280.494 283.554 280.358 283.663 280.341 284.024 280.21 284.001 280.852 284 280.815 283.868 281.077 283.731 281.349 283.49 281.563 283.244 281.739 282.997 281.916 282.926 281.924 282.417 282.118Z" fill="#FFFFFF"/><path d="M280.827 284.671C280.894 284.226 280.873 283.922 281.06 283.615 281.23 283.339 281.527 283.157 281.809 283 282.025 282.88 282.295 282.728 282.511 282.764 282.538 283.082 282.615 283.281 282.511 283.505 282.382 283.781 282.052 283.906 281.809 284.088 281.422 284.389 280.994 284.624 280.827 284.671Z" fill="#FFFFFF"/><path d="M281.17 280.667C281.165 280.854 281.347 280.948 281.528 280.983 281.812 281.037 282.069 280.757 282.293 280.573 282.527 280.379 282.792 280.021 282.792 279.958 282.792 279.895 283.024 279.699 282.916 279.375 282.402 279.445 281.982 279.886 281.575 280.226 281.422 280.354 281.174 280.467 281.17 280.667Z" fill="#FFFFFF"/><path d="M279.376 280.589C279.903 280.552 280.39 280.195 280.483 280.147 280.577 280.1 280.853 279.832 280.905 279.58 280.94 279.408 280.984 279.134 280.827 279.06 280.437 279.267 280.179 279.235 279.922 279.438 279.701 279.621 279.42 280.199 279.376 280.589Z" fill="#FFFFFF"/><path d="M277.177 281.077C277.508 281.164 277.843 280.873 278.128 280.667 278.409 280.465 278.635 280.16 278.752 279.832 278.831 279.609 278.999 279.365 278.83 279.202 278.743 279.118 278.596 279.309 278.487 279.359 278.144 279.726 277.836 279.918 277.598 280.226 277.4 280.518 277.376 280.66 277.177 281.077Z" fill="#FFFFFF"/><path d="M278.892 282.843C278.892 282.843 278.974 282.339 279.126 282.102 279.281 281.861 279.498 281.65 279.75 281.519 279.927 281.427 280.168 281.175 280.312 281.314 280.501 281.497 280.233 281.858 280.078 282.07 279.872 282.353 279.32 282.596 279.22 282.669 279.114 282.747 278.868 282.972 278.892 282.843Z" fill="#FFFFFF"/><path d="M279.314 284.324C279.28 284.076 279.356 283.845 279.454 283.631 279.55 283.42 279.729 283.258 279.875 283.079 280.02 282.901 280.15 282.704 280.327 282.559 280.434 282.472 280.57 282.28 280.686 282.354 280.8 282.627 280.729 282.865 280.639 283.095 280.504 283.442 280.219 283.72 279.938 283.962 279.755 284.119 279.602 284.151 279.314 284.324Z" fill="#FFFFFF"/><path d="M276.914 284.437C276.913 284.089 277.209 284.307 277.488 284.102 277.675 283.965 277.956 283.68 278.326 283.445 278.161 283.87 278.003 284.077 277.94 284.325 278.074 284.687 278.214 284.889 277.95 285.039 277.603 285.236 276.914 284.839 276.914 284.437Z" fill="#FFFFFF"/><path d="M277.256 283.155C277.234 283.111 277.18 282.738 277.234 282.497 277.305 282.179 277.457 281.901 277.664 281.65 277.872 281.398 278.042 281.148 278.359 281.071 278.458 281.046 278.631 280.99 278.678 281.08 278.669 281.44 278.431 281.845 278.293 282.161 278.022 282.588 277.663 282.727 277.256 283.153Z" fill="#FFFFFF"/><path d="M275.789 283.233C276.18 282.913 276.473 282.509 276.517 282.464 276.561 282.419 276.986 282 277.024 281.695 277.052 281.48 277.013 281.161 276.815 281.082 276.648 281.016 276.526 281.214 276.407 281.349 276.149 281.645 276.091 282.073 275.988 282.453 275.918 282.711 275.74 282.834 275.789 283.233Z" fill="#FFFFFF"/><path d="M254.355 278.358 254.571 279.668C253.862 279.816 253.253 279.767 252.746 279.52 252.243 279.275 251.835 278.843 251.523 278.225 251.136 277.46 251.076 276.698 251.343 275.94 251.612 275.179 252.195 274.568 253.092 274.105 254.04 273.615 254.902 273.482 255.675 273.707 256.452 273.93 257.044 274.445 257.452 275.252 257.808 275.957 257.891 276.635 257.702 277.288 257.591 277.676 257.34 278.053 256.95 278.419L256.096 277.409C256.357 277.188 256.518 276.925 256.579 276.619 256.642 276.316 256.595 276.01 256.439 275.701 256.223 275.274 255.896 275.005 255.457 274.895 255.02 274.787 254.462 274.908 253.783 275.259 253.063 275.631 252.616 276.027 252.442 276.447 252.269 276.867 252.288 277.286 252.5 277.705 252.657 278.014 252.888 278.23 253.195 278.352 253.502 278.474 253.889 278.476 254.355 278.357Z" fill="#FFFFFF"/><path d="M253.401 281.538 258.765 278.009 261.353 282.028 260.446 282.625 258.562 279.701 257.373 280.483 259.126 283.204 258.222 283.799 256.469 281.077 255.01 282.038 256.96 285.066 256.056 285.66Z" fill="#FFFFFF"/><path d="M256.712 286.582 261.624 282.435 262.43 283.411 260.829 288.211 264.109 285.442 264.879 286.373 259.967 290.52 259.136 289.514 260.685 284.809 257.482 287.513Z" fill="#FFFFFF"/><path d="M261.987 292.503 265.59 288.551 264.193 287.25 264.927 286.446 268.667 289.928 267.934 290.733 266.54 289.436 262.937 293.388Z" fill="#FFFFFF"/><path d="M264.974 295.222 268.553 289.86 270.808 291.397C271.375 291.784 271.754 292.113 271.944 292.385 272.139 292.656 272.231 292.967 272.221 293.319 272.211 293.67 272.1 294.005 271.889 294.321 271.62 294.724 271.281 294.977 270.871 295.081 270.463 295.182 270.004 295.108 269.492 294.859 269.633 295.153 269.723 295.433 269.764 295.699 269.807 295.966 269.817 296.395 269.795 296.986L269.744 298.474 268.463 297.6 268.467 295.906C268.469 295.301 268.456 294.911 268.427 294.734 268.399 294.555 268.341 294.408 268.254 294.292 268.168 294.173 268.002 294.03 267.756 293.862L267.539 293.714 266.045 295.952 264.974 295.222ZM268.111 292.858 268.903 293.398C269.417 293.749 269.753 293.945 269.91 293.989 270.067 294.032 270.218 294.025 270.362 293.967 270.506 293.909 270.631 293.8 270.739 293.639 270.859 293.458 270.908 293.28 270.885 293.105 270.865 292.928 270.779 292.766 270.624 292.619 270.546 292.547 270.289 292.364 269.855 292.068L269.019 291.498 268.111 292.858Z" fill="#FFFFFF"/><path d="M271.364 295.762C271.616 295.154 271.917 294.683 272.268 294.346 272.528 294.099 272.824 293.904 273.155 293.761 273.489 293.618 273.818 293.547 274.143 293.548 274.576 293.542 275.032 293.643 275.513 293.85 276.383 294.219 276.965 294.786 277.259 295.552 277.557 296.319 277.504 297.188 277.101 298.159 276.702 299.122 276.13 299.766 275.386 300.092 274.642 300.415 273.837 300.393 272.97 300.026 272.093 299.654 271.507 299.088 271.213 298.329 270.92 297.567 270.97 296.711 271.364 295.762ZM272.609 296.242C272.329 296.917 272.27 297.495 272.434 297.976 272.598 298.454 272.918 298.793 273.393 298.995 273.868 299.196 274.329 299.188 274.775 298.972 275.225 298.755 275.594 298.3 275.881 297.608 276.164 296.925 276.227 296.352 276.068 295.889 275.913 295.428 275.589 295.093 275.098 294.885 274.607 294.677 274.14 294.68 273.697 294.894 273.256 295.106 272.893 295.555 272.609 296.241Z" fill="#FFFFFF"/><path d="M294.747 300.493 293.388 300.855 292.477 299.578 290.003 300.236 289.863 301.793 288.537 302.146 289.318 295.25 290.64 294.898 294.747 300.493ZM291.802 298.631 290.344 296.537 290.113 299.08Z" fill="#FFFFFF"/><path d="M295.401 300.202 292.453 294.461 294.17 293.561 297.212 296.936 296.22 292.486 297.941 291.584 300.888 297.325 299.823 297.883 297.502 293.364 298.695 298.475 297.591 299.054 294.146 295.124 296.467 299.643Z" fill="#FFFFFF"/><path d="M301.936 296.531 297.99 291.439 301.726 288.482 302.394 289.343 299.675 291.495 300.55 292.624 303.079 290.622 303.744 291.48 301.215 293.482 302.289 294.868 305.104 292.64 305.768 293.498Z" fill="#FFFFFF"/><path d="M306.586 292.728 301.945 288.275 303.817 286.282C304.288 285.78 304.672 285.457 304.969 285.312 305.266 285.163 305.585 285.122 305.926 285.19 306.268 285.258 306.576 285.424 306.85 285.687 307.198 286.022 307.389 286.401 307.423 286.827 307.454 287.251 307.306 287.697 306.978 288.165 307.289 288.074 307.577 288.03 307.843 288.033 308.11 288.033 308.531 288.094 309.104 288.215L310.548 288.511 309.483 289.644 307.83 289.36C307.241 289.256 306.858 289.205 306.681 289.206 306.502 289.205 306.348 289.238 306.22 289.305 306.09 289.371 305.923 289.513 305.718 289.73L305.538 289.922 307.475 291.781 306.586 292.728ZM304.797 289.211 305.455 288.511C305.882 288.056 306.13 287.754 306.198 287.605 306.266 287.455 306.284 287.304 306.251 287.151 306.219 286.998 306.133 286.855 305.993 286.721 305.837 286.571 305.671 286.493 305.496 286.487 305.321 286.477 305.149 286.536 304.979 286.666 304.896 286.733 304.675 286.958 304.314 287.342L303.619 288.081 304.797 289.211Z" fill="#FFFFFF"/><path d="M310.888 287.92 305.855 283.925 306.653 282.898 311.686 286.892Z" fill="#FFFFFF"/><path d="M312.751 281.165 313.772 280.328C314.25 280.879 314.508 281.438 314.546 282.005 314.583 282.569 314.413 283.14 314.035 283.72 313.568 284.438 312.942 284.866 312.157 285.006 311.37 285.145 310.556 284.934 309.715 284.375 308.825 283.783 308.286 283.091 308.097 282.3 307.906 281.508 308.057 280.733 308.55 279.976 308.98 279.316 309.523 278.907 310.179 278.752 310.567 278.658 311.016 278.692 311.523 278.854L311.075 280.103C310.757 279.983 310.451 279.971 310.157 280.069 309.866 280.163 309.625 280.356 309.437 280.646 309.176 281.046 309.106 281.466 309.227 281.906 309.35 282.343 309.73 282.774 310.367 283.197 311.043 283.647 311.604 283.844 312.051 283.789 312.498 283.735 312.849 283.511 313.105 283.118 313.294 282.828 313.365 282.518 313.319 282.188 313.273 281.857 313.083 281.517 312.751 281.166Z" fill="#FFFFFF"/><path d="M318.579 275.236 317.939 276.501 316.39 276.334 315.225 278.636 316.279 279.78 315.655 281.014 311.092 275.826 311.714 274.596 318.579 275.236ZM315.241 276.211 312.725 275.912 314.446 277.782Z" fill="#FFFFFF"/><path d="M244.096 249.721 244.072 248.434 247.488 248.369C248.03 248.358 248.381 248.335 248.541 248.301 248.798 248.241 249.004 248.106 249.158 247.898 249.309 247.686 249.381 247.4 249.374 247.041 249.366 246.676 249.288 246.402 249.139 246.219 248.987 246.036 248.802 245.928 248.587 245.895 248.371 245.861 248.013 245.849 247.514 245.859L244.025 245.925 244.001 244.638 247.314 244.575C248.071 244.561 248.607 244.585 248.921 244.649 249.235 244.713 249.501 244.836 249.719 245.021 249.938 245.202 250.115 245.448 250.25 245.759 250.382 246.069 250.453 246.477 250.462 246.981 250.474 247.59 250.414 248.054 250.281 248.372 250.147 248.688 249.97 248.939 249.753 249.126 249.533 249.313 249.301 249.438 249.058 249.5 248.699 249.591 248.166 249.643 247.46 249.657L244.096 249.721Z" fill="#FFFFFF"/><path d="M250.342 243.141 244.049 242.683 244.138 241.434 248.526 239.137 244.324 238.832 244.408 237.639 250.701 238.096 250.609 239.385 246.323 241.65 250.427 241.948Z" fill="#FFFFFF"/><path d="M250.895 236.782 244.644 235.921 244.816 234.646 251.067 235.507 250.895 236.782Z" fill="#FFFFFF"/><path d="M251.531 232.697 244.903 233.681 245.174 232.313 250.066 231.656 245.79 229.2 246.055 227.861 251.798 231.35Z" fill="#FFFFFF"/><path d="M252.424 228.468 246.377 226.651 247.71 222.12 248.733 222.427 247.763 225.724 249.104 226.127 250.006 223.059 251.025 223.365 250.123 226.433 251.768 226.928 252.773 223.514 253.792 223.82Z" fill="#FFFFFF"/><path d="M254.149 222.772 248.32 220.335 249.344 217.831C249.602 217.202 249.842 216.767 250.064 216.527 250.285 216.284 250.565 216.132 250.903 216.073 251.24 216.013 251.582 216.056 251.926 216.2 252.364 216.383 252.672 216.664 252.852 217.043 253.03 217.422 253.05 217.885 252.912 218.433 253.166 218.238 253.416 218.094 253.661 218.003 253.908 217.908 254.316 217.814 254.886 217.719L256.317 217.475 255.735 218.898 254.115 219.228C253.536 219.343 253.166 219.433 253.003 219.497 252.838 219.56 252.708 219.645 252.614 219.753 252.517 219.86 252.413 220.05 252.301 220.324L252.203 220.565 254.636 221.582 254.149 222.772ZM251.272 220.176 251.632 219.296C251.866 218.725 251.988 218.359 251.998 218.197 252.009 218.035 251.972 217.89 251.888 217.76 251.805 217.631 251.675 217.53 251.5 217.457 251.304 217.375 251.124 217.363 250.961 217.42 250.797 217.473 250.659 217.59 250.548 217.769 250.495 217.86 250.37 218.147 250.173 218.629L249.793 219.557 251.272 220.176Z" fill="#FFFFFF"/><path d="M254.703 216.134 255.2 214.98C255.599 215.118 255.94 215.135 256.22 215.031 256.502 214.924 256.737 214.699 256.925 214.357 257.124 213.994 257.199 213.68 257.149 213.413 257.098 213.142 256.97 212.949 256.767 212.835 256.637 212.762 256.505 212.74 256.371 212.767 256.237 212.791 256.083 212.881 255.909 213.035 255.791 213.142 255.546 213.397 255.173 213.801 254.694 214.321 254.279 214.642 253.93 214.765 253.438 214.937 252.974 214.9 252.538 214.655 252.257 214.497 252.039 214.27 251.883 213.974 251.727 213.674 251.667 213.337 251.705 212.964 251.744 212.588 251.882 212.186 252.117 211.757 252.502 211.058 252.942 210.617 253.439 210.435 253.938 210.251 254.445 210.292 254.962 210.558L254.392 211.711C254.082 211.6 253.822 211.59 253.611 211.681 253.4 211.768 253.207 211.969 253.033 212.286 252.853 212.613 252.779 212.906 252.81 213.166 252.83 213.333 252.911 213.457 253.054 213.537 253.184 213.61 253.327 213.617 253.481 213.557 253.677 213.482 253.989 213.206 254.418 212.73 254.847 212.255 255.202 211.925 255.483 211.741 255.763 211.554 256.063 211.453 256.382 211.44 256.7 211.423 257.033 211.512 257.382 211.708 257.698 211.885 257.945 212.14 258.123 212.472 258.302 212.804 258.37 213.171 258.327 213.571 258.281 213.97 258.125 214.412 257.86 214.896 257.472 215.601 257.014 216.052 256.486 216.249 255.955 216.445 255.36 216.407 254.703 216.134Z" fill="#FFFFFF"/><path d="M259.599 211.752 254.369 208.187 255.081 207.12 260.311 210.684Z" fill="#FFFFFF"/><path d="M256.114 205.557 257.607 203.752C257.944 203.345 258.231 203.06 258.469 202.899 258.79 202.683 259.142 202.562 259.525 202.538 259.908 202.514 260.299 202.579 260.697 202.735 261.094 202.888 261.519 203.157 261.972 203.54 262.37 203.876 262.672 204.217 262.878 204.56 263.129 204.98 263.269 205.396 263.3 205.807 263.323 206.117 263.26 206.457 263.112 206.827 263 207.103 262.793 207.423 262.491 207.788L260.953 209.646 256.114 205.557ZM257.749 205.261 260.955 207.969 261.565 207.232C261.793 206.956 261.943 206.744 262.013 206.596 262.106 206.402 262.148 206.213 262.14 206.029 262.134 205.842 262.05 205.624 261.89 205.375 261.727 205.124 261.459 204.841 261.085 204.525 260.711 204.208 260.396 203.999 260.14 203.897 259.885 203.794 259.651 203.755 259.44 203.781 259.228 203.806 259.026 203.894 258.834 204.046 258.689 204.157 258.45 204.415 258.117 204.817L257.75 205.261Z" fill="#FFFFFF"/><path d="M269.452 201.037 268.395 201.942 267.049 201.197 265.125 202.845 265.654 204.29 264.623 205.173 262.419 198.704 263.447 197.824ZM266.05 200.645 263.873 199.408 264.736 201.77Z" fill="#FFFFFF"/><path d="M267.043 195.056 269.089 193.932C269.55 193.679 269.921 193.521 270.201 193.46 270.578 193.378 270.949 193.397 271.314 193.516 271.679 193.636 272.018 193.842 272.333 194.135 272.645 194.425 272.943 194.832 273.225 195.357 273.473 195.818 273.631 196.246 273.697 196.642 273.777 197.126 273.757 197.565 273.635 197.958 273.544 198.256 273.362 198.549 273.09 198.837 272.885 199.052 272.576 199.273 272.163 199.5L270.057 200.657 267.043 195.056ZM268.672 195.389 270.669 199.098 271.504 198.639C271.817 198.468 272.033 198.326 272.152 198.214 272.309 198.068 272.417 197.908 272.476 197.734 272.539 197.558 272.54 197.324 272.48 197.033 272.42 196.739 272.274 196.376 272.041 195.943 271.808 195.51 271.591 195.198 271.391 195.008 271.19 194.818 270.987 194.695 270.781 194.64 270.575 194.585 270.355 194.592 270.121 194.661 269.946 194.711 269.63 194.862 269.174 195.112L268.671 195.389Z" fill="#FFFFFF"/><path d="M277.36 190.558 279.662 190.21C280.181 190.131 280.583 190.111 280.867 190.15 281.249 190.203 281.591 190.349 281.894 190.588 282.196 190.827 282.445 191.138 282.641 191.521 282.837 191.902 282.979 192.388 283.066 192.978 283.143 193.497 283.145 193.954 283.072 194.349 282.984 194.832 282.817 195.237 282.569 195.564 282.383 195.812 282.113 196.025 281.759 196.202 281.494 196.333 281.129 196.434 280.664 196.504L278.293 196.863 277.358 190.558ZM278.777 191.434 279.397 195.61 280.338 195.468C280.689 195.415 280.94 195.356 281.09 195.292 281.287 195.21 281.443 195.097 281.558 194.953 281.676 194.809 281.756 194.59 281.8 194.296 281.843 194 281.828 193.608 281.756 193.12 281.684 192.633 281.586 192.265 281.462 192.017 281.338 191.769 281.189 191.583 281.014 191.46 280.839 191.337 280.63 191.268 280.387 191.252 280.205 191.239 279.857 191.271 279.344 191.349L278.777 191.435Z" fill="#FFFFFF"/><path d="M284.635 196.103 285.316 189.765 289.966 190.275 289.851 191.347 286.467 190.976 286.316 192.381 289.465 192.726 289.35 193.794 286.202 193.449 286.016 195.174 289.52 195.558 289.406 196.626 284.635 196.103Z" fill="#FFFFFF"/><path d="M293.037 197.749 295.759 191.997 299.979 194.037 299.519 195.01 296.448 193.526 295.845 194.801 298.702 196.182 298.243 197.151 295.386 195.77 294.645 197.335 297.824 198.872 297.366 199.841Z" fill="#FFFFFF"/><path d="M298.302 200.493 302.01 195.4 303.036 196.162 299.958 200.39 302.509 202.287 301.879 203.152Z" fill="#FFFFFF"/><path d="M305.712 203.984 306.609 204.858C306.341 205.188 306.206 205.504 306.205 205.806 306.205 206.111 306.331 206.412 306.583 206.709 306.849 207.025 307.115 207.205 307.38 207.251 307.649 207.297 307.872 207.244 308.048 207.092 308.162 206.994 308.229 206.877 308.25 206.741 308.275 206.605 308.246 206.428 308.163 206.21 308.106 206.061 307.955 205.74 307.711 205.245 307.396 204.609 307.243 204.104 307.252 203.731 307.266 203.205 307.462 202.779 307.841 202.451 308.085 202.241 308.372 202.113 308.701 202.07 309.034 202.026 309.367 202.088 309.7 202.254 310.035 202.423 310.359 202.694 310.674 203.066 311.188 203.675 311.443 204.247 311.437 204.781 311.434 205.317 311.219 205.783 310.791 206.179L309.921 205.236C310.133 204.982 310.233 204.739 310.222 204.508 310.216 204.277 310.097 204.024 309.864 203.748 309.624 203.464 309.378 203.291 309.126 203.23 308.964 203.19 308.821 203.224 308.697 203.331 308.583 203.429 308.527 203.561 308.529 203.728 308.532 203.94 308.678 204.332 308.968 204.904 309.259 205.477 309.44 205.928 309.512 206.259 309.588 206.59 309.576 206.908 309.477 207.215 309.381 207.522 309.182 207.806 308.879 208.068 308.604 208.305 308.281 208.45 307.911 208.503 307.54 208.555 307.177 208.491 306.821 208.311 306.467 208.128 306.112 207.826 305.756 207.405 305.238 206.792 304.98 206.201 304.982 205.631 304.985 205.06 305.229 204.511 305.713 203.984Z" fill="#FFFFFF"/><path d="M311.166 215.019 310.423 213.837 311.337 212.591 309.986 210.44 308.497 210.772 307.772 209.619 314.415 208.297 315.137 209.446ZM312.016 211.666 313.526 209.656 311.093 210.198Z" fill="#FFFFFF"/><path d="M311.447 215.713 317.069 212.938 317.628 214.094 312.961 216.398 314.351 219.274 313.396 219.745Z" fill="#FFFFFF"/><path d="M314.038 221.523 319.127 217.12 319.62 218.424 315.828 221.614 320.741 221.389 321.223 222.665 314.523 222.807 314.038 221.523Z" fill="#FFFFFF"/><path d="M316.808 230.502 316.439 229.153 317.674 228.231 317.003 225.774 315.484 225.652 315.124 224.336 321.859 225.034 322.217 226.346 316.808 230.502ZM318.59 227.547 320.615 226.071 318.132 225.87Z" fill="#FFFFFF"/><path d="M323.143 230.11 323.54 232.428C323.63 232.951 323.659 233.356 323.627 233.644 323.582 234.031 323.446 234.38 323.216 234.691 322.987 235.002 322.685 235.261 322.31 235.468 321.938 235.674 321.46 235.828 320.878 235.93 320.367 236.02 319.914 236.033 319.522 235.969 319.043 235.891 318.638 235.731 318.309 235.488 318.059 235.305 317.843 235.037 317.66 234.684 317.524 234.419 317.416 234.052 317.336 233.584L316.927 231.197 323.143 230.109ZM322.309 231.562 318.192 232.282 318.354 233.229C318.415 233.584 318.478 233.836 318.545 233.986 318.631 234.183 318.746 234.338 318.891 234.451 319.036 234.567 319.254 234.643 319.546 234.68 319.841 234.717 320.228 234.693 320.709 234.609 321.189 234.525 321.551 234.418 321.793 234.287 322.036 234.156 322.216 234.001 322.334 233.822 322.452 233.642 322.516 233.43 322.526 233.184 322.535 233 322.495 232.649 322.407 232.132L322.309 231.562Z" fill="#FFFFFF"/><path d="M321.05 237.059C321.691 237.01 322.236 237.066 322.685 237.227 323.016 237.347 323.318 237.521 323.592 237.751 323.865 237.983 324.074 238.243 324.219 238.532 324.415 238.915 324.532 239.365 324.57 239.883 324.64 240.82 324.408 241.59 323.875 242.195 323.342 242.802 322.563 243.145 321.539 243.223 320.524 243.3 319.708 243.082 319.091 242.568 318.477 242.053 318.136 241.329 318.066 240.395 317.996 239.45 318.224 238.676 318.752 238.075 319.283 237.474 320.049 237.135 321.05 237.059ZM321.191 238.378C320.479 238.432 319.951 238.64 319.606 239 319.265 239.361 319.113 239.797 319.151 240.308 319.19 240.82 319.402 241.225 319.79 241.524 320.181 241.826 320.741 241.949 321.47 241.894 322.191 241.839 322.717 241.638 323.048 241.29 323.379 240.945 323.525 240.508 323.486 239.979 323.446 239.45 323.234 239.037 322.85 238.74 322.468 238.444 321.915 238.323 321.191 238.378Z" fill="#FFFFFF"/><path d="M318.404 244.47 324.712 244.592 324.661 247.3C324.648 247.982 324.581 248.475 324.461 248.78 324.343 249.088 324.138 249.332 323.844 249.512 323.551 249.692 323.218 249.778 322.845 249.771 322.372 249.761 321.983 249.613 321.679 249.326 321.377 249.039 321.191 248.615 321.122 248.054 320.956 248.33 320.775 248.555 320.579 248.731 320.384 248.91 320.038 249.148 319.542 249.446L318.296 250.201 318.325 248.662 319.715 247.758C320.212 247.437 320.525 247.216 320.653 247.097 320.784 246.978 320.874 246.851 320.923 246.715 320.974 246.58 321.003 246.364 321.008 246.069L321.013 245.808 318.379 245.757 318.404 244.47ZM322.02 245.827 322.002 246.78C321.992 247.397 322.01 247.783 322.058 247.938 322.107 248.092 322.193 248.214 322.318 248.304 322.442 248.393 322.599 248.44 322.789 248.443 323.001 248.449 323.173 248.394 323.304 248.279 323.438 248.168 323.524 248.009 323.563 247.801 323.579 247.697 323.592 247.384 323.602 246.862L323.622 245.858 322.022 245.827Z" fill="#FFFFFF"/><path d="M321.457 254.879C319.871 256.302 319.47 258.66 319.273 261.178 317.592 260.14 316.224 262.244 318.936 262.634 317.869 264.536 317.127 266.607 317.647 269.336 319.279 268.05 320.02 265.911 319.784 262.837 322.336 264.27 323.711 261.783 320.051 261.414 321.491 259.276 322.21 256.969 321.457 254.879Z" fill="#FFFFFF" fill-rule="evenodd"/><path d="M247.022 254.919C248.622 256.327 249.045 258.68 249.266 261.197 251.79 259.784 252.57 262.581 249.616 262.649 250.701 264.541 251.463 266.605 250.968 269.339 249.324 268.068 248.563 265.936 248.77 262.86 246.62 264.22 245.252 261.743 248.338 261.454 246.942 259.355 246.289 257.016 247.022 254.919Z" fill="#FFFFFF" fill-rule="evenodd"/><path d="M235.558 266.148C235.147 266.183 234.706 266.794 233.85 267.243 232.811 267.787 231.929 267.662 231.059 268.026 229.705 268.592 229.511 270.117 229.78 270.59 230.849 272.465 235.395 275.979 236.016 275.237 236.326 274.867 236.228 272.476 236.133 270.502 236.037 268.528 236.293 266.367 235.734 266.17 235.675 266.15 235.617 266.143 235.558 266.148ZM235.241 267.672C235.299 267.668 235.338 267.681 235.354 267.709 235.443 267.867 235.331 269.285 235.308 270.739 235.286 272.192 235.297 273.648 235.053 273.905 234.563 274.419 231.549 271.933 230.669 270.613 230.427 270.249 230.598 268.826 231.674 268.767 232.205 268.738 233.035 268.544 233.787 268.238 234.397 267.988 234.992 267.69 235.241 267.672Z" fill="#FFFFFF" fill-rule="evenodd"/><path d="M229 271.093C229.274 276.285 228.929 282.955 234.089 285.969 236.8 287.552 239.415 287.518 239.85 291.02 244.834 288.488 245.917 283.235 242.141 279.719 239.972 277.699 236.061 276.798 233.379 275.046 231.471 273.799 230.307 272.586 229 271.093ZM229.969 273.444C231.144 274.649 232.222 275.335 233.896 276.305 236.249 277.668 238.968 278.445 240.898 280.058 244.258 282.867 243.751 286.289 240.563 289.503 239.515 287.445 236.966 286.198 234.596 284.98 230.085 282.661 230.434 277.833 229.969 273.444Z" fill="#FFFFFF" fill-rule="evenodd"/><path d="M245.119 283.867C245.027 289.047 241.889 290.593 236.759 293.607 231.026 296.976 228.446 303.274 234.434 308.573 235.013 306.075 238.355 303.995 241.475 302.201 243.358 301.118 244.977 300.334 245.315 297.027 245.681 293.452 245.977 287.371 245.119 283.867ZM244.63 289.198C244.512 297.105 244.65 298.824 240.411 301.598 237.833 303.261 234.77 305.136 234.039 306.732 230.701 302.038 232.265 298.291 235.675 295.638 238.755 293.242 242.854 291.877 244.63 289.198Z" fill="#FFFFFF" fill-rule="evenodd"/><path d="M230.121 303.563C230.121 303.563 229.842 303.992 229.855 304.582 229.966 309.609 231.491 318.339 231.606 318.367 236.155 325.268 254.08 328.213 266.592 320.114 267.45 319.559 267.661 318.562 267.536 317.745 267.094 314.869 267.532 312.137 267.931 309.377 268.138 307.962 267.089 306.942 266.059 306.993 263.42 307.122 260.809 307.955 257.003 308.146 255.898 308.202 255.382 307.298 256.515 306.608 259.913 304.541 269.851 304.379 274.631 304.502 273.894 304.171 273.319 303.794 272.48 303.67 271.698 303.554 259.698 303.946 255.693 306.054 254.871 306.488 254.254 307.968 255.541 308.639 256.525 309.152 261.194 308.913 265.776 307.985 266.653 307.808 266.995 308.68 266.922 309.199 266.499 312.184 266.38 314.869 266.276 317.845 266.243 318.813 266.135 319.569 265.454 319.956 256.4 325.092 239.827 325.91 232.587 318.053 231.499 314.644 231.209 311.158 231.263 307.593 237.168 315.866 259.858 316.822 265.633 310.195 265.997 309.781 265.835 309.078 265.546 308.765 265.256 308.451 264.949 308.315 264.415 308.462 260.664 309.491 254.34 310.922 253.806 307.316 253.443 307.308 253.185 307.517 252.984 307.839 252.869 309.685 252.771 311.846 252.941 313.692 242.371 313.646 233.211 311.829 230.121 303.563ZM264.812 308.963C265.194 308.963 265.424 309.463 265.156 309.745 262.481 312.56 257.158 313.673 253.715 313.646 253.614 312.127 253.651 310.449 253.779 309.103 256.751 311.772 262.123 309.922 264.639 308.995 264.699 308.973 264.757 308.963 264.812 308.963Z" fill="#FFFFFF" fill-rule="evenodd"/><path d="M333.619 266.148C334.03 266.183 334.47 266.794 335.327 267.243 336.366 267.787 337.248 267.662 338.118 268.026 339.471 268.592 339.666 270.117 339.397 270.59 338.327 272.465 333.781 275.979 333.161 275.237 332.851 274.867 332.948 272.476 333.044 270.502 333.139 268.528 332.884 266.367 333.443 266.17 333.502 266.15 333.56 266.143 333.619 266.148ZM333.936 267.672C333.878 267.668 333.839 267.681 333.823 267.709 333.734 267.867 333.846 269.285 333.868 270.739 333.891 272.192 333.879 273.648 334.124 273.905 334.614 274.419 337.628 271.933 338.508 270.613 338.75 270.249 338.578 268.826 337.503 268.767 336.972 268.738 336.142 268.544 335.39 268.238 334.779 267.988 334.185 267.69 333.936 267.672Z" fill="#FFFFFF" fill-rule="evenodd"/><path d="M340.176 271.093C339.902 276.285 340.248 282.955 335.087 285.969 332.377 287.552 329.761 287.518 329.326 291.02 324.342 288.488 323.26 283.235 327.036 279.719 329.205 277.699 333.115 276.798 335.797 275.046 337.705 273.799 338.87 272.586 340.176 271.093ZM339.207 273.444C338.032 274.649 336.954 275.335 335.28 276.305 332.927 277.668 330.208 278.445 328.278 280.058 324.919 282.867 325.425 286.289 328.613 289.503 329.662 287.445 332.211 286.198 334.58 284.98 339.091 282.661 338.742 277.833 339.207 273.444Z" fill="#FFFFFF" fill-rule="evenodd"/><path d="M324.057 283.867C324.15 289.047 327.287 290.593 332.417 293.607 338.15 296.976 340.73 303.274 334.743 308.573 334.164 306.075 330.821 303.995 327.701 302.201 325.819 301.118 324.2 300.334 323.862 297.027 323.496 293.452 323.199 287.371 324.057 283.867ZM324.546 289.198C324.664 297.105 324.526 298.824 328.765 301.598 331.344 303.261 334.407 305.136 335.137 306.732 338.475 302.038 336.911 298.291 333.501 295.638 330.422 293.242 326.323 291.877 324.546 289.198Z" fill="#FFFFFF" fill-rule="evenodd"/><path d="M339.055 303.563C339.055 303.563 339.334 303.992 339.321 304.582 339.21 309.609 337.686 318.339 337.57 318.367 333.022 325.268 315.096 328.213 302.584 320.114 301.727 319.559 301.515 318.562 301.641 317.745 302.082 314.869 301.645 312.137 301.245 309.377 301.039 307.962 302.087 306.942 303.117 306.993 305.756 307.122 308.367 307.955 312.174 308.146 313.278 308.202 313.794 307.298 312.661 306.608 309.263 304.541 299.326 304.379 294.545 304.502 295.283 304.171 295.857 303.794 296.697 303.67 297.478 303.554 309.479 303.946 313.483 306.054 314.306 306.488 314.922 307.968 313.635 308.639 312.652 309.152 307.983 308.913 303.401 307.985 302.524 307.808 302.181 308.68 302.255 309.199 302.677 312.184 302.796 314.869 302.9 317.845 302.934 318.813 303.041 319.569 303.723 319.956 312.776 325.092 329.35 325.91 336.589 318.053 337.678 314.644 337.968 311.158 337.914 307.593 332.008 315.866 309.319 316.822 303.543 310.195 303.179 309.781 303.341 309.078 303.631 308.765 303.92 308.451 304.228 308.315 304.761 308.462 308.513 309.491 314.837 310.922 315.371 307.316 315.734 307.308 315.992 307.517 316.193 307.839 316.307 309.685 316.405 311.846 316.236 313.692 326.806 313.646 335.965 311.829 339.055 303.563ZM304.365 308.963C303.982 308.963 303.752 309.463 304.02 309.745 306.696 312.56 312.019 313.673 315.462 313.646 315.563 312.127 315.525 310.449 315.397 309.103 312.425 311.772 307.054 309.922 304.537 308.995 304.477 308.973 304.419 308.963 304.365 308.963Z" fill="#FFFFFF" fill-rule="evenodd"/><path d="M266.735 315.062C277.183 313.507 288.668 313.095 302.245 314.99L302.245 316.227C290.31 313.972 278.421 314.159 266.771 316.227Z" fill="#FFFFFF" fill-rule="evenodd"/><path d="M234.248 318.864 234.248 315.746 235.181 316.275 235.181 318.863 237.498 320.176 237.498 320.706Z" fill="#FFFFFF"/><path d="M237.982 320.977 237.982 317.833 238.914 318.189 238.914 321.333Z" fill="#FFFFFF"/><path d="M239.677 318.488 241.49 318.937C241.849 319.026 242.116 319.103 242.291 319.167 242.469 319.232 242.626 319.313 242.765 319.413 242.905 319.514 243.021 319.631 243.114 319.764 243.207 319.895 243.254 320.029 243.254 320.165 243.254 320.312 243.196 320.433 243.08 320.527 242.967 320.622 242.812 320.676 242.616 320.689 242.893 320.813 243.105 320.961 243.254 321.132 243.402 321.303 243.476 321.48 243.476 321.661 243.476 321.804 243.428 321.931 243.331 322.043 243.236 322.154 243.105 322.229 242.938 322.27 242.773 322.309 242.569 322.306 242.326 322.262 242.173 322.236 241.805 322.152 241.221 322.01L239.677 321.627 239.677 318.484ZM240.593 319.238 240.593 319.965 241.193 320.114C241.55 320.202 241.772 320.253 241.858 320.268 242.015 320.294 242.138 320.287 242.226 320.247 242.317 320.207 242.362 320.136 242.362 320.035 242.362 319.937 242.323 319.849 242.245 319.77 242.169 319.689 242.054 319.624 241.902 319.573 241.811 319.544 241.55 319.476 241.119 319.368L240.593 319.238ZM240.593 320.488 240.593 321.329 241.441 321.539C241.771 321.62 241.98 321.666 242.069 321.675 242.205 321.691 242.315 321.677 242.4 321.633 242.486 321.587 242.53 321.508 242.53 321.397 242.53 321.302 242.497 321.214 242.431 321.132 242.365 321.05 242.269 320.978 242.143 320.917 242.019 320.856 241.749 320.774 241.332 320.671L240.593 320.488Z" fill="#FFFFFF"/><path d="M244.13 322.653 244.13 319.509 247.487 319.909 247.487 320.441 245.044 320.15 245.044 320.847 247.317 321.118 247.317 321.647 245.044 321.377 245.044 322.232 247.573 322.534 247.573 323.063Z" fill="#FFFFFF"/><path d="M248.331 323.084 248.331 319.94 250.192 319.94C250.66 319.94 250.999 319.969 251.21 320.026 251.423 320.082 251.594 320.182 251.721 320.327 251.849 320.471 251.912 320.636 251.912 320.822 251.912 321.058 251.816 321.253 251.623 321.407 251.429 321.56 251.141 321.657 250.756 321.697 250.948 321.777 251.105 321.865 251.228 321.961 251.354 322.056 251.522 322.226 251.733 322.471L252.268 323.084 251.21 323.084 250.571 322.4C250.344 322.156 250.189 322.002 250.105 321.939 250.022 321.875 249.933 321.831 249.839 321.808 249.746 321.784 249.598 321.772 249.394 321.772L249.215 321.772 249.215 323.084 248.331 323.084ZM249.215 321.27 249.869 321.27C250.293 321.27 250.558 321.257 250.664 321.231 250.769 321.206 250.852 321.161 250.912 321.098 250.971 321.035 251.001 320.957 251.001 320.863 251.001 320.757 250.961 320.672 250.882 320.607 250.804 320.542 250.694 320.5 250.55 320.483 250.479 320.477 250.263 320.474 249.905 320.474L249.215 320.474 249.215 321.272Z" fill="#FFFFFF"/><path d="M253.725 322.882 253.725 320.27 252.355 320.418 252.355 319.886 256.024 319.49 256.024 320.022 254.657 320.17 254.657 322.781 253.725 322.882Z" fill="#FFFFFF"/><path d="M260.015 321.787 259.036 321.968 258.647 321.326 256.865 321.657 256.498 322.439 255.543 322.616 257.279 319.15 258.23 318.974 260.015 321.787ZM258.358 320.85 257.744 319.798 257.142 321.076Z" fill="#FFFFFF"/><path d="M260.494 318.407 262.092 317.791C262.453 317.652 262.728 317.566 262.917 317.533 263.171 317.489 263.389 317.502 263.57 317.571 263.751 317.64 263.889 317.757 263.984 317.922 264.078 318.085 264.125 318.314 264.125 318.609 264.125 318.868 264.081 319.108 263.992 319.329 263.884 319.6 263.729 319.844 263.529 320.063 263.377 320.229 263.172 320.392 262.914 320.551 262.721 320.67 262.463 320.792 262.14 320.916L260.494 321.551 260.494 318.407ZM261.368 318.602 261.368 320.684 262.021 320.432C262.266 320.338 262.442 320.26 262.55 320.198 262.692 320.118 262.809 320.029 262.902 319.932 262.997 319.834 263.073 319.704 263.133 319.541 263.192 319.376 263.221 319.173 263.221 318.93 263.221 318.687 263.192 318.511 263.133 318.404 263.074 318.297 262.991 318.227 262.884 318.195 262.778 318.163 262.643 318.166 262.479 318.204 262.357 318.231 262.118 318.313 261.761 318.451L261.368 318.602Z" fill="#FFFFFF"/><path d="M234.866 314.848 234.866 311.704 235.767 312.187 235.767 313.424 237.531 314.37 237.531 313.132 238.431 313.615 238.431 316.758 237.531 316.276 237.531 314.901 235.767 313.956 235.767 315.33Z" fill="#FFFFFF"/><path d="M243.287 317.831 242.328 317.618 241.946 316.82 240.2 316.432 239.84 317.066 238.904 316.859 240.606 314.093 241.538 314.3ZM241.663 316.227 241.062 314.927 240.472 315.963Z" fill="#FFFFFF"/><path d="M246.564 317.078 247.399 317.365C247.271 317.694 247.058 317.925 246.759 318.06 246.462 318.193 246.084 318.235 245.626 318.184 245.059 318.122 244.593 317.929 244.228 317.605 243.863 317.279 243.68 316.868 243.68 316.374 243.68 315.851 243.864 315.465 244.231 315.216 244.598 314.966 245.08 314.874 245.678 314.939 246.201 314.997 246.625 315.157 246.951 315.42 247.145 315.576 247.291 315.784 247.388 316.047L246.534 316.103C246.484 315.935 246.378 315.794 246.217 315.682 246.058 315.571 245.864 315.502 245.635 315.477 245.318 315.442 245.061 315.498 244.863 315.643 244.667 315.789 244.569 316.049 244.569 316.424 244.569 316.821 244.666 317.115 244.86 317.305 245.054 317.495 245.306 317.607 245.617 317.641 245.846 317.666 246.043 317.634 246.208 317.545 246.373 317.456 246.492 317.3 246.564 317.078Z" fill="#FFFFFF"/><path d="M248.174 318.223 248.174 315.08 249.106 315.08 249.106 318.223Z" fill="#FFFFFF"/><path d="M254.028 318.274 253.014 318.274 252.611 317.56 250.766 317.56 250.385 318.274 249.396 318.274 251.194 315.131 252.18 315.131ZM252.312 317.031 251.676 315.864 251.052 317.031Z" fill="#FFFFFF"/><path d="M256.057 317.813 256.057 314.696 256.99 314.479 256.99 317.067 259.307 316.527 259.307 317.057 256.058 317.813Z" fill="#FFFFFF"/><path d="M263.904 315.668 262.932 315.96 262.525 315.412 260.756 315.944 260.411 316.718 259.464 317.003 261.097 313.559 262.042 313.275ZM262.223 315.005 261.58 314.103 261.016 315.368 262.223 315.005Z" fill="#FFFFFF"/><path d="M307.956 316.495 307.956 313.351 309.413 313.711C309.966 313.847 310.326 313.951 310.493 314.024 310.751 314.135 310.967 314.291 311.141 314.492 311.315 314.692 311.402 314.918 311.402 315.168 311.402 315.361 311.351 315.511 311.251 315.617 311.151 315.724 311.023 315.796 310.868 315.834 310.714 315.87 310.558 315.881 310.398 315.866 310.181 315.843 309.867 315.781 309.456 315.679L308.864 315.533 308.864 316.719 307.956 316.495ZM308.864 314.107 308.864 314.999 309.361 315.121C309.719 315.21 309.959 315.252 310.079 315.249 310.2 315.244 310.294 315.216 310.362 315.165 310.431 315.112 310.466 315.039 310.466 314.946 310.466 314.831 310.418 314.725 310.322 314.627 310.226 314.529 310.104 314.453 309.957 314.398 309.848 314.357 309.63 314.296 309.303 314.215L308.864 314.107Z" fill="#FFFFFF"/><path d="M311.916 315.995C311.916 315.675 311.982 315.417 312.115 315.222 312.215 315.078 312.349 314.956 312.52 314.857 312.692 314.757 312.88 314.694 313.085 314.666 313.356 314.627 313.669 314.636 314.024 314.694 314.667 314.799 315.18 315.026 315.564 315.376 315.951 315.726 316.144 316.157 316.144 316.669 316.144 317.177 315.953 317.543 315.57 317.768 315.188 317.992 314.676 318.051 314.036 317.947 313.388 317.841 312.873 317.615 312.49 317.268 312.107 316.92 311.916 316.496 311.916 315.995ZM312.823 316.122C312.823 316.478 312.937 316.767 313.165 316.988 313.393 317.208 313.682 317.347 314.033 317.404 314.384 317.461 314.671 317.417 314.895 317.272 315.121 317.126 315.234 316.871 315.234 316.506 315.234 316.146 315.124 315.859 314.904 315.646 314.686 315.433 314.396 315.297 314.033 315.238 313.67 315.179 313.378 315.221 313.156 315.365 312.934 315.508 312.823 315.76 312.823 316.122Z" fill="#FFFFFF"/><path d="M316.735 318.24 316.735 315.096 318.59 315.128C319.056 315.137 319.395 315.171 319.605 315.232 319.817 315.291 319.987 315.394 320.114 315.541 320.241 315.688 320.305 315.854 320.305 316.04 320.305 316.276 320.208 316.469 320.016 316.62 319.823 316.77 319.536 316.861 319.153 316.894 319.343 316.978 319.5 317.069 319.623 317.167 319.748 317.265 319.916 317.438 320.126 317.686L320.659 318.308 319.605 318.291 318.968 317.595C318.742 317.347 318.587 317.19 318.504 317.126 318.42 317.06 318.332 317.015 318.239 316.991 318.145 316.965 317.998 316.95 317.795 316.947L317.617 316.939 317.617 318.251 316.735 318.235ZM317.617 316.441 318.268 316.45C318.691 316.456 318.955 316.448 319.06 316.426 319.165 316.402 319.248 316.359 319.307 316.297 319.367 316.235 319.397 316.157 319.397 316.063 319.397 315.957 319.357 315.871 319.278 315.805 319.2 315.738 319.09 315.695 318.947 315.675 318.876 315.667 318.661 315.66 318.304 315.653L317.617 315.641 317.617 316.439Z" fill="#FFFFFF"/><path d="M322.87 318.128 322.87 315.01 323.756 314.898 323.756 317.486 325.959 317.208 325.959 317.738 322.87 318.128Z" fill="#FFFFFF"/><path d="M330.565 316.813 329.583 317.008 329.192 316.372 327.405 316.727 327.035 317.515 326.077 317.706 327.819 314.215 328.774 314.025ZM328.902 315.9 328.286 314.856 327.682 316.143Z" fill="#FFFFFF"/><path d="M307.787 320.042 308.655 320.551C308.522 320.846 308.3 321.021 307.989 321.076 307.681 321.131 307.289 321.072 306.813 320.9 306.225 320.687 305.741 320.37 305.362 319.948 304.983 319.525 304.794 319.066 304.794 318.572 304.794 318.049 304.984 317.711 305.365 317.56 305.746 317.408 306.247 317.444 306.868 317.668 307.41 317.864 307.85 318.137 308.189 318.487 308.391 318.694 308.542 318.942 308.643 319.23L307.757 319.06C307.704 318.878 307.595 318.709 307.427 318.555 307.262 318.401 307.06 318.28 306.822 318.194 306.494 318.076 306.227 318.063 306.021 318.156 305.818 318.25 305.716 318.484 305.716 318.858 305.716 319.256 305.817 319.575 306.018 319.817 306.22 320.058 306.482 320.237 306.804 320.354 307.042 320.44 307.247 320.46 307.418 320.415 307.589 320.37 307.712 320.245 307.787 320.042Z" fill="#FFFFFF"/><path d="M309.387 318.693 310.279 318.89 310.279 320.593C310.279 320.863 310.29 321.041 310.312 321.125 310.35 321.263 310.44 321.386 310.583 321.496 310.727 321.606 310.924 321.688 311.173 321.743 311.426 321.799 311.617 321.805 311.745 321.761 311.874 321.715 311.951 321.641 311.977 321.54 312.003 321.439 312.016 321.264 312.016 321.015L312.016 319.276 312.908 319.473 312.908 321.124C312.908 321.502 312.884 321.763 312.836 321.908 312.787 322.053 312.698 322.165 312.568 322.243 312.439 322.322 312.266 322.37 312.049 322.386 311.833 322.401 311.55 322.37 311.2 322.292 310.779 322.199 310.458 322.094 310.239 321.977 310.023 321.859 309.851 321.731 309.724 321.593 309.598 321.453 309.515 321.318 309.474 321.188 309.416 320.995 309.387 320.722 309.387 320.371L309.387 318.694Z" fill="#FFFFFF"/><path d="M313.79 322.843 313.79 319.725 314.676 319.846 314.676 322.434 316.879 322.735 316.879 323.265Z" fill="#FFFFFF"/><path d="M318.043 323.249 318.043 320.637 316.673 320.588 316.673 320.056 320.342 320.186 320.342 320.718 318.975 320.67 318.975 323.282Z" fill="#FFFFFF"/><path d="M320.788 320.148 321.645 320.055 321.645 321.758C321.645 322.028 321.656 322.202 321.677 322.28 321.714 322.404 321.8 322.499 321.938 322.562 322.077 322.625 322.266 322.643 322.505 322.616 322.749 322.59 322.932 322.534 323.056 322.447 323.179 322.36 323.254 322.261 323.279 322.151 323.304 322.041 323.316 321.862 323.316 321.613L323.316 319.874 324.174 319.781 324.174 321.432C324.174 321.809 324.151 322.078 324.104 322.239 324.058 322.4 323.972 322.541 323.846 322.662 323.723 322.782 323.557 322.886 323.348 322.973 323.14 323.059 322.867 323.12 322.531 323.156 322.126 323.2 321.818 323.197 321.607 323.149 321.399 323.101 321.234 323.029 321.112 322.932 320.991 322.834 320.91 322.726 320.872 322.609 320.816 322.435 320.788 322.172 320.788 321.82L320.788 320.143Z" fill="#FFFFFF"/><path d="M325.117 322.695 325.117 319.551 326.982 319.161C327.452 319.062 327.792 319.02 328.003 319.032 328.217 319.043 328.388 319.108 328.515 319.225 328.643 319.343 328.707 319.495 328.707 319.681 328.707 319.917 328.61 320.132 328.417 320.327 328.223 320.521 327.934 320.678 327.548 320.798 327.74 320.838 327.898 320.893 328.021 320.963 328.147 321.032 328.316 321.167 328.527 321.367L329.063 321.868 328.003 322.09 327.363 321.54C327.135 321.344 326.979 321.223 326.896 321.177 326.812 321.13 326.723 321.105 326.629 321.102 326.535 321.097 326.387 321.116 326.183 321.159L326.003 321.197 326.003 322.51 325.117 322.695ZM326.003 320.695 326.659 320.558C327.084 320.469 327.35 320.4 327.456 320.352 327.561 320.305 327.644 320.243 327.704 320.167 327.764 320.092 327.794 320.007 327.794 319.913 327.794 319.807 327.754 319.73 327.674 319.683 327.596 319.633 327.486 319.615 327.342 319.628 327.27 319.634 327.054 319.676 326.695 319.753L326.004 319.898 326.004 320.695Z" fill="#FFFFFF"/><path d="M333.529 320.353 332.585 320.67 332.209 320.082 330.49 320.658 330.136 321.491 329.215 321.8 330.889 318.095 331.807 317.787ZM331.931 319.645 331.338 318.678 330.757 320.039Z" fill="#FFFFFF"/><path d="M278.678 311.585C278.707 311.773 278.691 311.948 278.63 312.11 278.569 312.271 278.48 312.402 278.363 312.502 278.275 312.577 278.175 312.636 278.063 312.678 277.951 312.72 277.815 312.754 277.656 312.779L276.954 312.891 276.638 310.879 277.36 310.763C277.522 310.737 277.665 310.729 277.787 310.738 277.909 310.746 278.014 310.769 278.102 310.807 278.252 310.869 278.378 310.966 278.479 311.098 278.581 311.228 278.647 311.391 278.678 311.586ZM278.147 311.667C278.126 311.534 278.084 311.425 278.021 311.339 277.959 311.252 277.872 311.19 277.76 311.154 277.704 311.136 277.647 311.127 277.59 311.127 277.534 311.127 277.451 311.136 277.34 311.152L277.211 311.173 277.409 312.432 277.538 312.411C277.661 312.392 277.749 312.372 277.805 312.352 277.86 312.331 277.912 312.302 277.962 312.263 278.047 312.194 278.104 312.111 278.134 312.014 278.163 311.916 278.168 311.8 278.147 311.667Z" fill="#FFFFFF"/><path d="M280.684 312.398 279.233 312.546 279.031 310.518 280.482 310.371 280.521 310.763 279.584 310.858 279.619 311.208 280.488 311.119 280.527 311.511 279.658 311.6 279.709 312.101 280.645 312.006 280.684 312.398Z" fill="#FFFFFF"/><path d="M283.472 312.293 282.127 312.316 282.122 311.96 282.547 311.952 282.529 310.875 282.104 310.884 282.099 310.551C282.164 310.551 282.226 310.546 282.286 310.537 282.345 310.528 282.395 310.513 282.434 310.493 282.481 310.47 282.515 310.439 282.538 310.403 282.561 310.366 282.574 310.32 282.577 310.265L283.025 310.257 283.054 311.944 283.469 311.935 283.474 312.291Z" fill="#FFFFFF"/><path d="M285.599 311.797C285.592 311.977 285.509 312.122 285.353 312.23 285.196 312.339 284.986 312.387 284.721 312.376 284.572 312.37 284.445 312.349 284.34 312.314 284.234 312.278 284.148 312.232 284.081 312.174 284.015 312.118 283.966 312.053 283.936 311.979 283.906 311.906 283.893 311.828 283.896 311.745 283.9 311.643 283.933 311.554 283.995 311.478 284.058 311.401 284.163 311.336 284.311 311.283L284.311 311.274C284.196 311.215 284.113 311.142 284.061 311.057 284.01 310.972 283.986 310.874 283.991 310.765 283.997 310.604 284.076 310.475 284.229 310.378 284.381 310.281 284.576 310.238 284.813 310.248 285.062 310.258 285.255 310.314 285.392 310.413 285.529 310.512 285.595 310.639 285.589 310.795 285.586 310.892 285.552 310.977 285.489 311.05 285.426 311.123 285.332 311.183 285.207 311.231L285.207 311.24C285.346 311.299 285.447 311.376 285.511 311.47 285.575 311.564 285.604 311.673 285.599 311.797ZM285.079 310.833C285.082 310.763 285.058 310.707 285.006 310.664 284.956 310.621 284.887 310.597 284.799 310.594 284.767 310.589 284.733 310.592 284.699 310.602 284.665 310.609 284.634 310.619 284.605 310.634 284.578 310.648 284.556 310.668 284.538 310.693 284.52 310.716 284.51 310.744 284.509 310.776 284.505 310.83 284.519 310.873 284.548 310.904 284.577 310.935 284.626 310.967 284.693 311 284.718 311.012 284.752 311.028 284.794 311.046 284.838 311.064 284.89 311.083 284.952 311.105 284.995 311.058 285.027 311.015 285.046 310.977 285.066 310.938 285.077 310.89 285.079 310.833ZM285.084 311.798C285.087 311.733 285.073 311.682 285.041 311.647 285.01 311.612 284.945 311.571 284.846 311.523 284.816 311.508 284.774 311.489 284.718 311.466 284.662 311.444 284.615 311.425 284.577 311.408 284.536 311.442 284.499 311.484 284.466 311.534 284.433 311.583 284.416 311.639 284.413 311.701 284.41 311.796 284.44 311.873 284.504 311.932 284.569 311.991 284.656 312.022 284.764 312.027 284.793 312.032 284.827 312.029 284.866 312.019 284.905 312.013 284.939 312 284.968 311.982 285.001 311.962 285.028 311.939 285.049 311.911 285.07 311.884 285.082 311.846 285.084 311.798Z" fill="#FFFFFF"/><path d="M287.611 312.089 287.337 312.062 287.291 312.534 286.797 312.485 286.843 312.013 285.871 311.917 285.909 311.533 286.962 310.449 287.489 310.501 287.373 311.692 287.647 311.719 287.611 312.089ZM286.878 311.642 286.949 310.909 286.295 311.584 286.879 311.642Z" fill="#FFFFFF"/><path d="M289.364 312.823 288.033 312.622 288.085 312.27 288.506 312.334 288.663 311.268 288.243 311.205 288.291 310.876C288.355 310.885 288.417 310.892 288.478 310.895 288.538 310.895 288.589 310.889 288.631 310.876 288.681 310.861 288.72 310.837 288.748 310.804 288.777 310.771 288.797 310.728 288.809 310.674L289.252 310.741 289.005 312.41 289.416 312.471 289.364 312.823Z" fill="#FFFFFF"/><path d="M273.049 309.657 271.725 309.903 271.662 309.553 272.08 309.476 271.887 308.416 271.469 308.494 271.409 308.167C271.473 308.155 271.534 308.14 271.591 308.122 271.648 308.103 271.695 308.081 271.73 308.055 271.772 308.024 271.802 307.988 271.818 307.948 271.835 307.908 271.84 307.86 271.834 307.806L272.275 307.724 272.577 309.383 272.986 309.307 273.049 309.657Z" fill="#FFFFFF"/><path d="M275.037 308.658C275.051 308.762 275.046 308.862 275.021 308.959 274.996 309.055 274.954 309.14 274.895 309.212 274.832 309.289 274.755 309.352 274.665 309.401 274.575 309.45 274.467 309.484 274.339 309.503 274.219 309.52 274.107 309.52 274.004 309.502 273.9 309.483 273.809 309.445 273.729 309.387 273.636 309.321 273.56 309.23 273.5 309.114 273.439 308.997 273.397 308.854 273.372 308.683 273.347 308.506 273.345 308.346 273.365 308.203 273.386 308.06 273.434 307.929 273.511 307.81 273.584 307.696 273.686 307.601 273.817 307.525 273.95 307.448 274.112 307.396 274.305 307.368 274.371 307.359 274.443 307.353 274.522 307.35 274.601 307.344 274.652 307.344 274.676 307.35L274.732 307.746 274.681 307.754C274.655 307.746 274.612 307.739 274.552 307.733 274.493 307.726 274.427 307.729 274.353 307.74 274.182 307.765 274.054 307.827 273.971 307.926 273.887 308.025 273.846 308.151 273.848 308.306 273.911 308.254 273.979 308.21 274.051 308.174 274.124 308.137 274.205 308.112 274.293 308.099 274.371 308.087 274.444 308.085 274.513 308.091 274.583 308.1 274.649 308.12 274.712 308.151 274.793 308.193 274.863 308.254 274.92 308.336 274.977 308.418 275.015 308.526 275.034 308.658ZM274.47 309.051C274.493 309.016 274.51 308.977 274.521 308.933 274.531 308.889 274.531 308.83 274.521 308.758 274.513 308.692 274.496 308.639 274.47 308.6 274.445 308.561 274.415 308.531 274.378 308.51 274.342 308.489 274.302 308.478 274.257 308.475 274.212 308.47 274.166 308.473 274.12 308.483 274.08 308.489 274.04 308.499 273.998 308.515 273.957 308.53 273.919 308.547 273.885 308.566 273.885 308.575 273.887 308.59 273.889 308.61 273.891 308.631 273.895 308.658 273.899 308.689 273.914 308.8 273.938 308.89 273.97 308.959 274.002 309.027 274.04 309.078 274.081 309.111 274.11 309.135 274.143 309.151 274.179 309.16 274.214 309.166 274.252 309.169 274.291 309.168 274.321 309.162 274.352 309.15 274.386 309.133 274.42 309.114 274.448 309.09 274.469 309.059Z" fill="#FFFFFF"/><path d="M278.474 307.982C278.49 308.171 278.463 308.344 278.391 308.502 278.319 308.659 278.221 308.783 278.098 308.875 278.005 308.943 277.901 308.995 277.786 309.029 277.672 309.063 277.534 309.088 277.374 309.102L276.666 309.167 276.486 307.137 277.215 307.072C277.378 307.057 277.521 307.059 277.642 307.079 277.763 307.096 277.866 307.126 277.952 307.17 278.098 307.242 278.217 307.348 278.309 307.486 278.402 307.623 278.457 307.79 278.474 307.986ZM277.938 308.026C277.926 307.892 277.892 307.78 277.835 307.69 277.779 307.599 277.696 307.532 277.587 307.487 277.532 307.466 277.476 307.453 277.419 307.449 277.363 307.443 277.28 307.446 277.168 307.457L277.038 307.467 277.15 308.737 277.281 308.728C277.404 308.715 277.494 308.702 277.55 308.687 277.607 308.67 277.661 308.644 277.713 308.609 277.803 308.546 277.866 308.467 277.902 308.372 277.938 308.276 277.95 308.161 277.938 308.027Z" fill="#FFFFFF"/><path d="M280.428 308.882 278.972 308.97 278.853 306.936 280.308 306.848 280.331 307.242 279.392 307.298 279.412 307.649 280.284 307.597 280.307 307.99 279.435 308.042 279.464 308.545 280.404 308.489 280.426 308.882Z" fill="#FFFFFF"/><path d="M283.421 307.152 282.493 307.17 282.499 307.549 283.359 307.531 283.365 307.925 282.505 307.943 282.521 308.813 282.004 308.822 281.965 306.785 283.409 306.757 283.415 307.151Z" fill="#FFFFFF"/><path d="M285.281 308.801 283.823 308.792 283.832 306.755 285.291 306.763 285.289 307.157 284.348 307.149 284.347 307.501 285.22 307.509 285.219 307.903 284.346 307.895 284.341 308.399 285.282 308.406 285.281 308.8Z" fill="#FFFFFF"/><path d="M287.474 308.239C287.471 308.337 287.448 308.425 287.406 308.501 287.365 308.577 287.309 308.64 287.239 308.689 287.158 308.746 287.069 308.786 286.973 308.809 286.877 308.832 286.756 308.841 286.61 308.836L285.73 308.808 285.794 306.772 286.576 306.797C286.738 306.802 286.857 306.812 286.931 306.824 287.007 306.838 287.081 306.864 287.154 306.904 287.229 306.945 287.285 307 287.32 307.068 287.355 307.135 287.372 307.21 287.369 307.295 287.366 307.394 287.338 307.48 287.284 307.554 287.231 307.627 287.156 307.683 287.061 307.722L287.061 307.732C287.192 307.762 287.294 307.82 287.368 307.906 287.443 307.991 287.478 308.102 287.474 308.237ZM286.834 307.381C286.835 307.347 286.827 307.313 286.812 307.279 286.796 307.245 286.768 307.219 286.726 307.201 286.688 307.185 286.641 307.176 286.584 307.173 286.528 307.168 286.45 307.165 286.348 307.164L286.299 307.164 286.286 307.595 286.367 307.602C286.449 307.608 286.519 307.61 286.577 307.61 286.635 307.61 286.681 307.602 286.715 307.587 286.762 307.568 286.794 307.542 286.809 307.509 286.825 307.476 286.833 307.437 286.835 307.393ZM286.936 308.214C286.939 308.149 286.928 308.099 286.902 308.063 286.879 308.027 286.838 307.999 286.779 307.98 286.738 307.967 286.683 307.958 286.612 307.955 286.54 307.95 286.466 307.947 286.388 307.947L286.275 307.939 286.259 308.446 286.297 308.447C286.443 308.453 286.548 308.456 286.611 308.456 286.674 308.456 286.733 308.446 286.786 308.426 286.841 308.404 286.879 308.376 286.9 308.339 286.922 308.301 286.934 308.258 286.935 308.208Z" fill="#FFFFFF"/><path d="M289.067 307.541C289.07 307.49 289.063 307.446 289.044 307.408 289.026 307.37 288.992 307.339 288.942 307.315 288.908 307.299 288.868 307.288 288.821 307.282 288.775 307.276 288.72 307.271 288.658 307.266L288.47 307.257 288.437 307.804 288.597 307.814C288.68 307.819 288.749 307.819 288.805 307.814 288.862 307.808 288.91 307.793 288.949 307.767 288.987 307.741 289.015 307.711 289.033 307.679 289.053 307.646 289.064 307.6 289.067 307.543ZM289.792 309.001 289.158 308.962 288.654 308.183 288.415 308.169 288.37 308.914 287.854 308.883 287.976 306.849 288.846 306.903C288.966 306.909 289.067 306.922 289.152 306.943 289.237 306.962 289.315 306.996 289.387 307.046 289.46 307.096 289.517 307.159 289.556 307.235 289.597 307.309 289.614 307.402 289.607 307.511 289.599 307.661 289.557 307.781 289.481 307.872 289.407 307.962 289.304 308.035 289.172 308.09L289.792 309.003Z" fill="#FFFFFF"/><path d="M291.485 309.16 290.033 309.026 290.216 306.997 291.669 307.131 291.633 307.523 290.696 307.437 290.664 307.787 291.534 307.867 291.499 308.26 290.629 308.179 290.584 308.681 291.521 308.767 291.485 309.16Z" fill="#FFFFFF"/><path d="M293.229 307.946C293.235 307.895 293.23 307.851 293.213 307.812 293.197 307.774 293.165 307.741 293.117 307.713 293.084 307.694 293.045 307.68 292.998 307.672 292.952 307.663 292.898 307.654 292.836 307.646L292.65 307.622 292.582 308.167 292.741 308.187C292.823 308.197 292.892 308.202 292.949 308.201 293.005 308.2 293.054 308.187 293.096 308.163 293.135 308.139 293.165 308.111 293.185 308.08 293.206 308.048 293.221 308.004 293.228 307.946ZM293.859 309.451 293.229 309.371 292.776 308.561 292.538 308.531 292.446 309.272 291.933 309.207 292.184 307.185 293.049 307.295C293.167 307.31 293.268 307.33 293.351 307.355 293.435 307.379 293.511 307.419 293.58 307.473 293.649 307.528 293.701 307.594 293.736 307.672 293.772 307.75 293.784 307.843 293.77 307.951 293.752 308.101 293.702 308.218 293.621 308.303 293.542 308.389 293.434 308.455 293.299 308.501L293.859 309.452Z" fill="#FFFFFF"/><path d="M296.201 308.819C296.147 309.139 296.013 309.378 295.8 309.536 295.587 309.692 295.32 309.743 294.999 309.688 294.68 309.633 294.445 309.495 294.296 309.276 294.146 309.056 294.098 308.786 294.153 308.466 294.207 308.143 294.341 307.904 294.554 307.748 294.768 307.591 295.034 307.541 295.353 307.596 295.672 307.651 295.907 307.788 296.057 308.007 296.208 308.226 296.256 308.497 296.202 308.819ZM295.436 309.211C295.496 309.158 295.545 309.092 295.583 309.014 295.621 308.934 295.65 308.838 295.669 308.726 295.689 308.606 295.693 308.501 295.68 308.411 295.667 308.322 295.642 308.247 295.606 308.188 295.57 308.126 295.524 308.078 295.469 308.043 295.414 308.009 295.355 307.986 295.291 307.975 295.226 307.963 295.162 307.966 295.101 307.983 295.04 307.996 294.981 308.026 294.923 308.072 294.87 308.114 294.822 308.178 294.778 308.262 294.736 308.345 294.705 308.445 294.685 308.562 294.665 308.682 294.661 308.786 294.672 308.875 294.686 308.964 294.71 309.038 294.746 309.099 294.781 309.16 294.827 309.208 294.882 309.243 294.937 309.279 294.998 309.302 295.064 309.313 295.13 309.325 295.194 309.323 295.258 309.306 295.322 309.29 295.381 309.259 295.435 309.213Z" fill="#FFFFFF"/></g></g></g><text fill="#FFFFFF" font-family="Arial,Arial_MSFontService,sans-serif" font-weight="400" font-size="43" transform="translate(349.335 279)">Universidad de El Salvador</text></g></svg>